<?xml version="1.0" encoding="UTF-8"?>
<svg id="_レイヤー_1" data-name="レイヤー_1" xmlns="http://www.w3.org/2000/svg" viewBox="0 0 1626 1467">
  <defs>
    <style>
      .cls-1 {
        fill: #2bb7d8;
      }

      .cls-2 {
        fill: #fefefe;
      }

      .cls-3 {
        fill: #172037;
      }
    </style>
  </defs>
  <path class="cls-2" d="M812.5,1466.91c-269.3,0-538.61,0-807.91.09-3.75,0-4.59-.84-4.59-4.59C.1,976.47.1,490.53,0,4.59,0,.84.84,0,4.59,0c538.94.1,1077.88.1,1616.81,0,3.75,0,4.59.84,4.59,4.59-.1,485.94-.1,971.88,0,1457.81,0,3.75-.84,4.6-4.59,4.59-269.64-.1-539.27-.09-808.91-.09ZM815.18,670.1c8.24.13,18.59-1.74,28.15-6.31,24.77-11.84,49.37-24.03,74-36.15,43.75-21.51,87.47-43.07,131.2-64.62,33.28-16.4,66.64-32.66,99.8-49.32,14.38-7.22,21.67-19.56,21.51-35.59-.16-15.84-7.72-27.75-21.96-34.8-47.12-23.33-94.34-46.44-141.5-69.68-52.68-25.97-105.31-52.04-158.01-77.97-22.75-11.19-45.84-11.77-68.81-.8-21.32,10.19-42.44,20.79-63.63,31.23-78.52,38.66-157.04,77.34-235.57,115.97-6.7,3.29-12.58,7.53-16.94,13.63-14.16,19.79-7.34,47.22,14.77,58.25,30.07,15.01,60.32,29.67,90.47,44.52,70.15,34.55,140.29,69.13,210.44,103.7,10.62,5.24,21.84,7.91,36.1,7.95ZM1046.52,856.08c-2.36-1.28-3.9-2.19-5.5-2.97-25.24-12.38-50.51-24.7-75.74-37.11-81.07-39.85-162.12-79.72-243.17-119.59-54.04-26.58-108.08-53.16-162.07-79.84-3.48-1.72-4.74-1.98-4.73,2.67.11,63.14-.08,126.28.16,189.42.09,22.39,10.09,39.79,29.54,51.07,62.02,35.98,124.1,71.86,186.28,107.55,27.7,15.89,55.73,15.89,83.48-.12,41.65-24.03,83.24-48.17,124.85-72.28,22.02-12.76,44.03-25.54,66.89-38.8ZM875.44,710.46c2.19,1.15,3.63,1.95,5.1,2.68,61.48,30.29,122.95,60.58,184.44,90.86,5.61,2.77,5.63,2.75,5.63-3.56,0-59.63.01-119.26-.02-178.89,0-7,1.42-7.87-6.64-3.9-56.69,27.97-113.37,55.94-170.06,83.9-5.91,2.92-11.87,5.74-18.45,8.91ZM306.53,1115.95c0,18.83.14,37.66-.1,56.48-.06,4.52,1.39,5.93,5.72,5.52,3.47-.33,7.01-.29,10.49,0,4.08.34,5.54-1.01,5.46-5.28-.25-13.66-.03-27.32-.15-40.99-.02-2.75.63-3.85,3.58-3.71,4.82.24,9.67.28,14.49-.01,3.17-.19,4.7,1.03,6.02,3.79,6.42,13.49,13.18,26.83,19.51,40.37,1.91,4.09,3.97,6.42,8.93,5.79,4.26-.54,8.66-.25,12.98-.07,4.07.17,5.05-.83,2.97-4.76-7.78-14.68-15.26-29.51-22.98-44.22-1.32-2.52-1.49-3.65,1.59-5,7.92-3.46,13.68-9.39,17.07-17.39,10.61-25-6.44-50.83-34.13-51.44-15.49-.34-30.99.07-46.49-.17-4.04-.06-5.07,1.21-5.03,5.11.18,18.66.08,37.32.08,55.98ZM983.16,1098.15c0-13.47-.09-26.09.06-38.7.04-3.42-.91-4.83-4.52-4.56-3.98.29-8,.19-11.99.03-2.76-.11-3.79.8-3.79,3.69.08,38.48.08,76.95,0,115.43,0,3.23,1.32,4.01,4.19,3.89,3.66-.15,7.35-.29,10.99.03,3.95.35,5.21-.98,5.15-5.01-.21-15.32-.12-30.65-.05-45.97.01-2.64.25-5.34.83-7.91,1.69-7.51,7.34-12,14.95-12.17,8.44-.19,13.7,3.55,16.15,11.23.94,2.93.99,5.89.99,8.88.02,15.32.1,30.65-.05,45.97-.03,3.56.82,5.26,4.72,4.97,3.98-.29,7.99-.16,11.99-.03,2.59.08,3.56-.97,3.54-3.52-.13-19.32.08-38.64-.38-57.95-.22-9.23-4.43-16.97-12.12-22.45-11.53-8.22-27.81-6.75-40.67,4.16ZM836.13,1140.89c7.83,0,15.66-.16,23.48.07,3.79.11,5.64-.8,5.15-4.99-.48-4.12-.42-8.31-.74-12.46-1.45-18.41-12.6-30.79-30.73-34.2-20.86-3.92-39.41,7.47-43.95,27.25-2.41,10.49-2.61,21.12-.56,31.72,3.69,19.08,13.96,29.1,33,31.16,13.9,1.5,26.81-1.57,37.56-11.22,4.86-4.36,4.83-4.41.05-8.55-1.89-1.63-3.86-3.19-5.58-4.99-2.18-2.28-3.95-2.47-6.17.03-2.72,3.06-6.4,4.71-10.28,5.84-14.19,4.13-25.93-1.88-29.01-14.74-.81-3.37-.59-5.21,3.8-5.01,7.98.35,15.98.1,23.98.1ZM674.72,1140.89c8.16,0,16.32-.02,24.48.01,2.12,0,4.16.05,4.12-2.9-.14-10.49-.07-21.03-5.23-30.64-7.49-13.94-24.2-21.23-41.01-17.99-17.32,3.34-27.84,14.54-30.06,32-.21,1.65-.5,3.3-.61,4.96-.88,13.46-.26,26.67,7.37,38.47,13.61,21.03,51.08,18.66,66.71,1.15,1.61-1.8,1.38-3.06-.4-4.52-2.7-2.21-5.41-4.45-7.86-6.92-2.13-2.14-3.63-2.02-5.8.06-6.77,6.49-15.03,8.19-24.04,6.56-8.1-1.47-13.95-7.63-15.42-15.65-.59-3.22-.23-4.84,3.77-4.68,7.98.32,15.98.1,23.98.09ZM463.04,1170.81q.54,7.07,7.33,7.07c2.83,0,5.66-.06,8.49.02,2.28.06,3.3-.79,3.29-3.2-.1-20.64.24-41.29-.35-61.92-.29-10-5.25-18.08-15.41-21.12-15.42-4.62-30.86-4.51-45.76,2.3-7.15,3.27-7.05,3.48-3.13,10.47.97,1.74,2.01,3.44,2.86,5.24,1.23,2.62,2.73,2.86,5.07,1.2,7.72-5.47,16.56-5.73,25.41-4.58,9.02,1.17,12.01,5.35,12.37,14.51.16,4.05-1.18,4.96-5.02,4.92-9.13-.09-18.32-.81-27.35,1.29-12.69,2.95-20.29,11.43-21.28,23.77-1.01,12.53,4.48,22.53,15.84,26.55,13.32,4.71,26.11,3.48,37.65-6.52ZM1147.78,1098.77c2.79-10.04-3.19-8.07-7.62-8.13-3-.04-6,.08-8.99-.03-2.41-.09-3.17.97-3.17,3.27.05,26.81.05,53.62,0,80.43,0,2.55.94,3.65,3.51,3.6,3.99-.09,8.01-.23,11.98.04,3.7.26,4.92-1,4.87-4.77-.19-14.65-.11-29.31-.05-43.96.01-2.98.18-6,.66-8.94,1.41-8.6,7.23-13.45,15.87-13.5,8.75-.05,14.49,4.62,16.05,13.24.41,2.28.5,4.63.51,6.96.04,15.15.18,30.31-.08,45.46-.08,4.48,1.37,5.93,5.72,5.53,3.63-.34,7.33-.19,10.98-.03,2.87.12,3.81-1.17,3.79-3.87-.08-18.48.47-36.99-.29-55.44-.85-20.54-15.23-32.06-35.47-29.66-6.64.79-12.19,3.86-18.29,9.81ZM737.29,1125.96c0,15.33.14,30.66-.09,45.98-.06,4.42.92,6.58,5.8,6.02,3.29-.38,6.69-.38,9.98,0,4.77.54,5.86-1.39,5.83-5.91-.18-30.99-.01-61.97-.19-92.96-.02-4.21,1.2-5.3,5.29-5.15,8.48.32,16.99-.05,25.48.17,3.56.09,4.77-1.13,4.51-4.6-.25-3.31-.2-6.67-.01-9.99.2-3.4-.96-4.65-4.55-4.64-27.65.13-55.31.11-82.96.02-2.98,0-4.27.83-4.12,3.93.17,3.66.19,7.34,0,10.99-.17,3.18.82,4.39,4.24,4.3,8.82-.24,17.66.09,26.48-.17,3.61-.11,4.42,1.14,4.39,4.53-.16,15.82-.07,31.65-.07,47.48ZM576.46,1088.83c-3.01-.13-7.63.35-12.15,1.63-13.9,3.92-20.73,13.21-20.29,27.55.38,12.28,8.01,20.44,22.07,23.05,7.02,1.3,14.19,1.76,21.22,3.03,3.76.68,6.74,2.85,7.12,7.24.4,4.63-1.9,7.61-5.87,9.46-1.33.62-2.83.95-4.29,1.23-8.38,1.6-16.04-.55-23.65-4-3.49-1.58-5.9-6.89-9.92-5.03-3.53,1.63-5.83,5.8-8.87,8.63-2.64,2.45-2.43,4.11.44,6.3,16.07,12.22,33.8,15.05,52.81,8.99,11.38-3.63,17.86-11.92,18.85-23.93,1.32-16.07-8.52-26.39-26.21-28.05-5.63-.53-11.27-1.12-16.82-2.13-3.99-.73-7.2-2.86-7.3-7.57-.1-4.74,2.64-7.25,6.93-8.48,7.27-2.07,14.07-.16,20.96,2.05,3.53,1.13,6.5,5.65,10.15,3.7,3.13-1.67,4.9-5.75,7.59-8.45,2.75-2.76,1.82-4.4-.95-6.23-9.16-6.03-19.2-8.99-31.83-9ZM1232.9,1134.48c.32-3.72.52-7.55,1.02-11.34.92-7.01,3.77-12.9,10.99-15.24,7.29-2.37,14.43-1.55,19.88,4.13,3.33,3.47,5.47,3.19,8.41-.02,1.9-2.07,4.09-3.94,6.38-5.58,3.06-2.19,2.54-3.94.12-6.32-10.99-10.81-24.2-13.31-38.72-10.27-15.17,3.18-23.81,13.03-26.98,27.92-1.92,9.05-1.69,18.27-.83,27.37,1.42,14.93,7.78,27,22.83,32.14,15.56,5.32,30.16,3.28,42.9-7.89,3.01-2.63,4.17-4.99-.05-7.67-2.08-1.32-3.9-3.14-5.59-4.95-3.03-3.26-5.31-3.52-8.81.02-5.51,5.58-12.72,6.29-19.94,3.77-6.9-2.41-9.76-8.13-10.6-15.01-.45-3.63-.68-7.28-1.01-11.05ZM897.42,1134.36c.21-3.28.22-7.13.73-10.92,1.99-14.72,15.69-21.25,28.16-13.73,2.64,1.59,4.11,6.01,7.42,4.95,2.93-.94,5.18-4.02,7.73-6.15.77-.64,1.48-1.36,2.3-1.92,3.05-2.07,2.57-3.95.16-6.37-5.71-5.74-12.46-9.45-20.4-10.71-19.63-3.12-40.25,4.08-45.17,28.58-1.88,9.35-1.77,18.85-.6,28.35,1.8,14.73,8.43,26.06,22.98,30.94,15.41,5.17,29.78,3.05,42.43-7.98,3.72-3.25,3.35-5.46-.42-8.05-1.91-1.31-3.75-2.83-5.28-4.56-2.83-3.19-4.89-3.71-8.37-.23-5.82,5.82-13.31,6.7-20.86,3.74-7.01-2.75-9.39-8.97-10.18-15.91-.36-3.14-.4-6.31-.61-10.03ZM1088.79,1116.52c0,18.8.11,37.6-.09,56.4-.04,4,1.14,5.36,5.09,5.03,3.63-.31,7.34-.32,10.97,0,4.19.38,5.32-1.17,5.3-5.31-.16-33.77-.06-67.55-.12-101.32-.01-5.28,2.24-12.2-.87-15.41-3.38-3.5-10.42-.56-15.81-1.18-4.02-.46-4.57,1.4-4.54,4.89.15,18.97.07,37.93.07,56.9ZM523.56,1134.7c0-13.14-.11-26.28.07-39.41.05-3.51-1.07-4.72-4.56-4.48-3.81.27-7.65.21-11.47.01-3.1-.16-4.49.69-4.48,4.12.11,26.27.08,52.55.03,78.83,0,2.96,1.06,4.26,4.11,4.14,3.82-.15,7.66-.25,11.47.03,3.74.27,4.94-1.14,4.89-4.83-.16-12.8-.06-25.61-.06-38.41ZM513.4,1078.2c8.15,0,16.29.03,24.44,0,6.64-.03,7.72-1.77,4.44-7.31-8.03-13.57-16.11-27.13-24.22-40.65-2.87-4.78-6.13-4.85-8.96-.16-8.31,13.8-16.57,27.62-24.77,41.48-2.61,4.42-1.44,6.55,3.64,6.61,8.48.11,16.96.03,25.43.03ZM1297.76,1166.41q0,11.47,10.96,11.47,10.75,0,10.75-10.83,0-11.29-11.1-11.29-10.61,0-10.61,10.65Z"/>
  <path class="cls-1" d="M815.18,670.1c-14.26-.04-25.48-2.71-36.1-7.95-70.14-34.57-140.28-69.15-210.44-103.7-30.15-14.85-60.4-29.51-90.47-44.52-22.11-11.03-28.93-38.46-14.77-58.25,4.36-6.1,10.24-10.33,16.94-13.63,78.54-38.63,157.05-77.31,235.57-115.97,21.2-10.44,42.32-21.04,63.63-31.23,22.97-10.98,46.05-10.4,68.81.8,52.7,25.93,105.33,52,158.01,77.97,47.16,23.24,94.39,46.35,141.5,69.68,14.24,7.05,21.79,18.97,21.96,34.8.17,16.02-7.13,28.36-21.51,35.59-33.16,16.65-66.51,32.92-99.8,49.32-43.73,21.55-87.46,43.1-131.2,64.62-24.64,12.11-49.24,24.3-74,36.15-9.56,4.57-19.91,6.44-28.15,6.31ZM765.94,478.38c0,22.31.05,44.63-.04,66.94-.02,5.32,1.83,9.35,6.53,11.99,4.63,2.6,8.83,1.46,13.16-1.05,37.85-21.93,75.72-43.82,113.67-65.59,4.8-2.76,8.5-6.01,8.52-11.85.02-5.82-3.57-9.23-8.38-11.99-37.77-21.71-75.62-43.29-113.1-65.5-9.02-5.35-20.85-1.12-20.52,11.61.57,21.8.16,43.62.16,65.44Z"/>
  <path class="cls-1" d="M1046.52,856.08c-22.86,13.26-44.87,26.05-66.89,38.8-41.61,24.11-83.19,48.25-124.85,72.28-27.76,16.01-55.79,16.01-83.48.12-62.19-35.69-124.27-71.56-186.28-107.55-19.45-11.28-29.45-28.68-29.54-51.07-.25-63.14-.05-126.28-.16-189.42,0-4.65,1.24-4.39,4.73-2.67,53.99,26.68,108.03,53.26,162.07,79.84,81.05,39.87,162.11,79.74,243.17,119.59,25.23,12.4,50.5,24.73,75.74,37.11,1.6.78,3.14,1.69,5.5,2.97Z"/>
  <path class="cls-1" d="M875.44,710.46c6.58-3.17,12.54-5.99,18.45-8.91,56.69-27.96,113.37-55.93,170.06-83.9,8.06-3.98,6.63-3.11,6.64,3.9.03,59.63.02,119.26.02,178.89,0,6.3-.02,6.32-5.63,3.56-61.48-30.28-122.96-60.57-184.44-90.86-1.47-.73-2.91-1.53-5.1-2.68Z"/>
  <path class="cls-3" d="M306.53,1115.95c0-18.66.1-37.32-.08-55.98-.04-3.9.99-5.17,5.03-5.11,15.49.23,31-.17,46.49.17,27.69.6,44.74,26.43,34.13,51.44-3.39,7.99-9.15,13.93-17.07,17.39-3.09,1.35-2.91,2.49-1.59,5,7.72,14.71,15.2,29.54,22.98,44.22,2.08,3.92,1.1,4.93-2.97,4.76-4.32-.18-8.72-.47-12.98.07-4.96.63-7.02-1.7-8.93-5.79-6.33-13.54-13.09-26.87-19.51-40.37-1.32-2.76-2.85-3.99-6.02-3.79-4.81.3-9.67.25-14.49.01-2.95-.14-3.61.95-3.58,3.71.12,13.66-.1,27.33.15,40.99.08,4.28-1.38,5.62-5.46,5.28-3.48-.29-7.02-.32-10.49,0-4.33.41-5.78-1-5.72-5.52.24-18.83.1-37.66.1-56.48ZM327.99,1091.69c0,4.65.14,9.32-.05,13.96-.11,2.67.82,3.4,3.41,3.35,7.98-.15,15.96.01,23.94-.07,11.22-.12,18.59-6.91,18.68-17.05.09-10.33-6.91-17.41-18.02-17.77-8.14-.27-16.29.06-24.43-.14-2.97-.07-3.68,1.03-3.57,3.76.18,4.65.05,9.31.05,13.96Z"/>
  <path class="cls-3" d="M983.16,1098.15c12.86-10.91,29.14-12.38,40.67-4.16,7.69,5.48,11.9,13.22,12.12,22.45.46,19.31.25,38.63.38,57.95.02,2.56-.95,3.61-3.54,3.52-3.99-.12-8.01-.26-11.99.03-3.9.28-4.76-1.42-4.72-4.97.15-15.32.08-30.65.05-45.97,0-2.99-.05-5.95-.99-8.88-2.45-7.68-7.71-11.42-16.15-11.23-7.61.17-13.26,4.66-14.95,12.17-.58,2.57-.82,5.27-.83,7.91-.08,15.32-.16,30.65.05,45.97.06,4.03-1.2,5.35-5.15,5.01-3.64-.32-7.33-.18-10.99-.03-2.87.12-4.2-.66-4.19-3.89.09-38.48.08-76.95,0-115.43,0-2.89,1.03-3.8,3.79-3.69,3.99.16,8.01.27,11.99-.03,3.61-.27,4.56,1.15,4.52,4.56-.15,12.61-.06,25.23-.06,38.7Z"/>
  <path class="cls-3" d="M836.13,1140.89c-7.99,0-16,.25-23.98-.1-4.39-.19-4.6,1.65-3.8,5.01,3.08,12.86,14.82,18.87,29.01,14.74,3.87-1.13,7.56-2.78,10.28-5.84,2.23-2.51,4-2.31,6.17-.03,1.72,1.8,3.69,3.36,5.58,4.99,4.78,4.14,4.81,4.19-.05,8.55-10.75,9.65-23.65,12.72-37.56,11.22-19.04-2.06-29.31-12.08-33-31.16-2.05-10.6-1.85-21.23.56-31.72,4.55-19.78,23.09-31.17,43.95-27.25,18.12,3.41,29.27,15.78,30.73,34.2.33,4.15.26,8.33.74,12.46.49,4.19-1.36,5.1-5.15,4.99-7.82-.23-15.65-.07-23.48-.07ZM826.05,1125.63c4.82,0,9.65-.13,14.47.05,2.8.1,3.76-.7,3.6-3.67-.51-9.49-7.74-16.07-18.04-16.05-10.17.02-17.63,6.75-18.14,16.07-.16,2.96.87,3.75,3.65,3.65,4.82-.17,9.64-.05,14.47-.05Z"/>
  <path class="cls-3" d="M674.72,1140.89c-7.99,0-16,.23-23.98-.1-4-.16-4.36,1.46-3.77,4.68,1.47,8.02,7.32,14.19,15.42,15.65,9.01,1.63,17.27-.07,24.04-6.56,2.17-2.08,3.67-2.2,5.8-.06,2.46,2.47,5.16,4.7,7.86,6.92,1.78,1.46,2.01,2.72.4,4.52-15.64,17.51-53.1,19.88-66.71-1.15-7.63-11.79-8.25-25.01-7.37-38.47.11-1.66.4-3.3.61-4.96,2.22-17.46,12.74-28.66,30.06-32,16.81-3.24,33.52,4.05,41.01,17.99,5.16,9.61,5.09,20.16,5.23,30.64.04,2.96-2,2.91-4.12,2.9-8.16-.04-16.32-.01-24.48-.01ZM664.58,1125.63c5,0,10-.09,14.99.04,2.56.07,3.51-.69,3.34-3.43-.6-9.76-8.03-16.41-18.51-16.29-10.2.12-17.3,6.81-17.76,16.46-.11,2.41.47,3.31,2.94,3.25,4.99-.13,9.99-.04,14.99-.04Z"/>
  <path class="cls-3" d="M463.04,1170.81c-11.54,10-24.33,11.24-37.65,6.52-11.36-4.02-16.85-14.02-15.84-26.55,1-12.34,8.59-20.81,21.28-23.77,9.04-2.1,18.22-1.38,27.35-1.29,3.84.04,5.18-.87,5.02-4.92-.37-9.15-3.35-13.34-12.37-14.51-8.84-1.14-17.68-.88-25.41,4.58-2.34,1.65-3.84,1.41-5.07-1.2-.84-1.8-1.89-3.5-2.86-5.24-3.92-7-4.02-7.21,3.13-10.47,14.9-6.81,30.34-6.92,45.76-2.3,10.16,3.04,15.12,11.12,15.41,21.12.59,20.63.25,41.28.35,61.92.01,2.4-1.01,3.26-3.29,3.2-2.83-.08-5.66-.02-8.49-.02q-6.78,0-7.33-7.07ZM451.01,1140.89c-3.7.18-8.04-.46-12.27.73-1.43.4-2.9.75-4.22,1.39-6.42,3.11-7.86,12.61-2.65,17.1,6.15,5.3,22.91,3.89,28.13-2.39,3.89-4.68,4.07-10.6,2.57-15.59-.91-3.04-6.2-.68-9.47-1.23-.48-.08-.99-.01-2.09-.01Z"/>
  <path class="cls-3" d="M1147.78,1098.77c6.1-5.95,11.65-9.02,18.29-9.81,20.23-2.4,34.62,9.12,35.47,29.66.76,18.45.21,36.96.29,55.44.01,2.7-.92,3.99-3.79,3.87-3.66-.15-7.35-.31-10.98.03-4.35.41-5.8-1.04-5.72-5.53.25-15.15.12-30.3.08-45.46,0-2.32-.1-4.68-.51-6.96-1.56-8.62-7.3-13.29-16.05-13.24-8.64.05-14.46,4.9-15.87,13.5-.48,2.94-.65,5.96-.66,8.94-.06,14.65-.14,29.31.05,43.96.05,3.77-1.17,5.03-4.87,4.77-3.98-.28-7.99-.13-11.98-.04-2.57.06-3.51-1.05-3.51-3.6.05-26.81.05-53.62,0-80.43,0-2.31.76-3.37,3.17-3.27,2.99.11,5.99,0,8.99.03,4.44.06,10.41-1.91,7.62,8.13Z"/>
  <path class="cls-3" d="M737.29,1125.96c0-15.83-.09-31.65.07-47.48.03-3.39-.78-4.63-4.39-4.53-8.82.26-17.66-.08-26.48.17-3.42.09-4.4-1.11-4.24-4.3.19-3.66.18-7.33,0-10.99-.15-3.1,1.14-3.94,4.12-3.93,27.65.09,55.31.11,82.96-.02,3.59-.02,4.74,1.24,4.55,4.64-.19,3.32-.23,6.68.01,9.99.26,3.47-.95,4.69-4.51,4.6-8.49-.22-17,.15-25.48-.17-4.09-.16-5.31.93-5.29,5.15.18,30.99.01,61.97.19,92.96.03,4.52-1.06,6.46-5.83,5.91-3.29-.38-6.69-.38-9.98,0-4.88.56-5.86-1.6-5.8-6.02.22-15.32.09-30.65.09-45.98Z"/>
  <path class="cls-3" d="M576.46,1088.83c12.63.01,22.67,2.97,31.83,9,2.77,1.83,3.7,3.47.95,6.23-2.69,2.7-4.46,6.78-7.59,8.45-3.64,1.94-6.62-2.58-10.15-3.7-6.89-2.2-13.69-4.12-20.96-2.05-4.29,1.22-7.03,3.74-6.93,8.48.1,4.71,3.31,6.84,7.3,7.57,5.55,1.01,11.2,1.6,16.82,2.13,17.69,1.65,27.53,11.98,26.21,28.05-.99,12.01-7.46,20.3-18.85,23.93-19.01,6.06-36.74,3.24-52.81-8.99-2.87-2.19-3.08-3.85-.44-6.3,3.04-2.83,5.34-7,8.87-8.63,4.03-1.86,6.44,3.44,9.92,5.03,7.61,3.46,15.28,5.6,23.65,4,1.46-.28,2.96-.61,4.29-1.23,3.97-1.85,6.27-4.83,5.87-9.46-.38-4.39-3.36-6.56-7.12-7.24-7.03-1.27-14.2-1.73-21.22-3.03-14.07-2.61-21.69-10.77-22.07-23.05-.45-14.34,6.39-23.63,20.29-27.55,4.53-1.28,9.14-1.76,12.15-1.63Z"/>
  <path class="cls-3" d="M1232.9,1134.48c.34,3.77.57,7.43,1.01,11.05.84,6.87,3.7,12.59,10.6,15.01,7.23,2.52,14.43,1.81,19.94-3.77,3.49-3.54,5.77-3.27,8.81-.02,1.69,1.82,3.51,3.63,5.59,4.95,4.22,2.69,3.06,5.04.05,7.67-12.74,11.17-27.34,13.2-42.9,7.89-15.04-5.14-21.4-17.21-22.83-32.14-.87-9.1-1.1-18.31.83-27.37,3.16-14.89,11.8-24.74,26.98-27.92,14.52-3.04,27.73-.54,38.72,10.27,2.41,2.37,2.94,4.12-.12,6.32-2.29,1.64-4.48,3.51-6.38,5.58-2.94,3.2-5.08,3.48-8.41.02-5.46-5.68-12.59-6.5-19.88-4.13-7.22,2.34-10.06,8.23-10.99,15.24-.5,3.79-.69,7.61-1.02,11.34Z"/>
  <path class="cls-3" d="M897.42,1134.36c.22,3.71.25,6.89.61,10.03.79,6.94,3.17,13.16,10.18,15.91,7.55,2.96,15.03,2.08,20.86-3.74,3.49-3.49,5.55-2.96,8.37.23,1.53,1.73,3.37,3.25,5.28,4.56,3.77,2.59,4.14,4.8.42,8.05-12.65,11.03-27.02,13.15-42.43,7.98-14.55-4.88-21.18-16.21-22.98-30.94-1.16-9.5-1.28-19.01.6-28.35,4.92-24.5,25.55-31.7,45.17-28.58,7.94,1.26,14.69,4.97,20.4,10.71,2.41,2.42,2.88,4.29-.16,6.37-.82.56-1.53,1.28-2.3,1.92-2.55,2.13-4.79,5.21-7.73,6.15-3.31,1.07-4.78-3.36-7.42-4.95-12.47-7.52-26.18-.99-28.16,13.73-.51,3.79-.52,7.64-.73,10.92Z"/>
  <path class="cls-3" d="M1088.79,1116.52c0-18.97.08-37.93-.07-56.9-.03-3.49.52-5.35,4.54-4.89,5.39.62,12.42-2.32,15.81,1.18,3.11,3.21.86,10.13.87,15.41.07,33.77-.03,67.55.12,101.32.02,4.14-1.11,5.68-5.3,5.31-3.63-.33-7.33-.31-10.97,0-3.95.33-5.14-1.03-5.09-5.03.2-18.8.09-37.6.09-56.4Z"/>
  <path class="cls-3" d="M523.56,1134.7c0,12.81-.1,25.61.06,38.41.05,3.69-1.15,5.1-4.89,4.83-3.8-.28-7.65-.17-11.47-.03-3.04.12-4.11-1.19-4.11-4.14.06-26.28.08-52.55-.03-78.83-.01-3.43,1.37-4.28,4.48-4.12,3.81.2,7.66.25,11.47-.01,3.48-.24,4.6.96,4.56,4.48-.18,13.14-.07,26.27-.07,39.41Z"/>
  <path class="cls-1" d="M513.4,1078.2c-8.48,0-16.96.08-25.43-.03-5.07-.06-6.25-2.19-3.64-6.61,8.2-13.86,16.46-27.69,24.77-41.48,2.82-4.69,6.09-4.62,8.96.16,8.12,13.52,16.19,27.08,24.22,40.65,3.28,5.54,2.2,7.28-4.44,7.31-8.15.04-16.29,0-24.44,0Z"/>
  <path class="cls-3" d="M1297.76,1166.41q0-10.65,10.61-10.65,11.1,0,11.1,11.29,0,10.83-10.75,10.83-10.96,0-10.96-11.47Z"/>
  <path class="cls-2" d="M765.94,478.38c0-21.81.41-43.64-.16-65.44-.33-12.73,11.49-16.96,20.52-11.61,37.48,22.2,75.33,43.78,113.1,65.5,4.8,2.76,8.4,6.17,8.38,11.99-.02,5.83-3.72,9.09-8.52,11.85-37.94,21.77-75.81,43.66-113.67,65.59-4.33,2.51-8.53,3.65-13.16,1.05-4.69-2.63-6.55-6.67-6.53-11.99.09-22.31.04-44.63.04-66.94Z"/>
  <path class="cls-2" d="M327.99,1091.69c0-4.65.13-9.31-.05-13.96-.11-2.72.6-3.83,3.57-3.76,8.14.2,16.3-.13,24.43.14,11.11.36,18.11,7.44,18.02,17.77-.09,10.14-7.47,16.93-18.68,17.05-7.98.09-15.96-.08-23.94.07-2.59.05-3.52-.68-3.41-3.35.2-4.65.05-9.31.05-13.96Z"/>
  <path class="cls-2" d="M826.05,1125.63c-4.82,0-9.65-.12-14.47.05-2.78.1-3.81-.7-3.65-3.65.51-9.32,7.97-16.05,18.14-16.07,10.3-.02,17.54,6.56,18.04,16.05.16,2.96-.8,3.77-3.6,3.67-4.82-.17-9.64-.05-14.47-.05Z"/>
  <path class="cls-2" d="M664.58,1125.63c-5,0-10-.09-14.99.04-2.47.06-3.05-.84-2.94-3.25.46-9.65,7.56-16.34,17.76-16.46,10.47-.12,17.91,6.52,18.51,16.29.17,2.73-.78,3.5-3.34,3.43-4.99-.13-9.99-.04-14.99-.04Z"/>
  <path class="cls-2" d="M451.01,1140.89c1.09,0,1.6-.07,2.09.01,3.27.55,8.56-1.81,9.47,1.23,1.5,4.99,1.31,10.91-2.57,15.59-5.22,6.28-21.98,7.7-28.13,2.39-5.21-4.49-3.76-13.99,2.65-17.1,1.32-.64,2.79-.99,4.22-1.39,4.23-1.19,8.58-.55,12.27-.73Z"/>
</svg>