<svg width="36" height="31" viewBox="0 0 36 31" fill="none" xmlns="http://www.w3.org/2000/svg">
<path d="M3.2496 30.7179L0.489517 25.4413C5.84733 22.6001 8.44505 19.1905 8.44505 13.6704L7.8768 6.28308L12.1793 12.0468C10.8804 13.1833 9.33802 13.9139 7.63326 13.9139C4.06139 13.9139 1.13895 11.5597 1.13895 7.66312C1.13895 3.523 3.81785 0.92527 7.63326 0.92527C12.7475 0.92527 15.5076 4.98422 15.5076 11.8844C15.5076 20.1647 11.4487 26.4966 3.2496 30.7179ZM23.5443 30.7179L20.7843 25.4413C26.1421 22.6001 28.7398 19.1905 28.7398 13.6704L28.1715 6.28308L32.474 12.0468C31.2563 13.1833 29.6328 13.9139 27.928 13.9139C24.3561 13.9139 21.4337 11.5597 21.4337 7.66312C21.4337 3.523 24.1938 0.92527 27.928 0.92527C33.0423 0.92527 35.8024 4.98422 35.8024 11.8844C35.8024 20.1647 31.6622 26.4966 23.5443 30.7179Z" fill="url(#paint0_linear_759_1900)"/>
<defs>
<linearGradient id="paint0_linear_759_1900" x1="17.546" y1="-28.9434" x2="17.546" y2="53.9268" gradientUnits="userSpaceOnUse">
<stop stop-color="#65D3CD"/>
<stop offset="1" stop-color="#10B5AB"/>
</linearGradient>
</defs>
</svg>
