<svg width="36" height="31" viewBox="0 0 36 31" fill="none" xmlns="http://www.w3.org/2000/svg">
<path d="M3.4039 30.7355L0.643814 25.4589C6.00162 22.6176 8.59935 19.2081 8.59935 13.6879L8.0311 6.30066L12.3336 12.0644C11.0347 13.2009 9.49232 13.9315 7.78756 13.9315C4.21569 13.9315 1.29324 11.5773 1.29324 7.6807C1.29324 3.54058 3.97215 0.942849 7.78756 0.942849C12.9018 0.942849 15.6619 5.0018 15.6619 11.902C15.6619 20.1823 11.603 26.5142 3.4039 30.7355ZM23.6986 30.7355L20.9386 25.4589C26.2964 22.6176 28.8941 19.2081 28.8941 13.6879L28.3258 6.30066L32.6283 12.0644C31.4106 13.2009 29.7871 13.9315 28.0823 13.9315C24.5104 13.9315 21.588 11.5773 21.588 7.6807C21.588 3.54058 24.3481 0.942849 28.0823 0.942849C33.1966 0.942849 35.9567 5.0018 35.9567 11.902C35.9567 20.1823 31.8165 26.5142 23.6986 30.7355Z" fill="url(#paint0_linear_759_1911)"/>
<defs>
<linearGradient id="paint0_linear_759_1911" x1="17.7003" y1="-28.9258" x2="17.7003" y2="53.9444" gradientUnits="userSpaceOnUse">
<stop stop-color="#AAE3E0"/>
<stop offset="1" stop-color="#62D3CC"/>
</linearGradient>
</defs>
</svg>
