<svg width="18" height="206" viewBox="0 0 18 206" fill="none" xmlns="http://www.w3.org/2000/svg">
<g style="mix-blend-mode:multiply">
<path d="M9 6L9.00001 196" stroke="#9DCBC8" stroke-linecap="round" stroke-dasharray="2 2"/>
</g>
<g filter="url(#filter0_d_759_1912)">
<path d="M14 9C14 11.7614 11.7614 14 9 14C6.23858 14 4 11.7614 4 9C4 6.23858 6.23858 4 9 4C11.7614 4 14 6.23858 14 9Z" fill="white"/>
</g>
<g filter="url(#filter1_d_759_1912)">
<path d="M14 117C14 119.761 11.7614 122 9 122C6.23858 122 4 119.761 4 117C4 114.239 6.23858 112 9 112C11.7614 112 14 114.239 14 117Z" fill="white"/>
</g>
<g filter="url(#filter2_d_759_1912)">
<path d="M14 89C14 91.7614 11.7614 94 9 94C6.23858 94 4 91.7614 4 89C4 86.2386 6.23858 84 9 84C11.7614 84 14 86.2386 14 89Z" fill="white"/>
</g>
<g filter="url(#filter3_d_759_1912)">
<path d="M14 170C14 172.761 11.7614 175 9 175C6.23858 175 4 172.761 4 170C4 167.239 6.23858 165 9 165C11.7614 165 14 167.239 14 170Z" fill="white"/>
</g>
<g filter="url(#filter4_d_759_1912)">
<path d="M14 197C14 199.761 11.7614 202 9 202C6.23858 202 4 199.761 4 197C4 194.239 6.23858 192 9 192C11.7614 192 14 194.239 14 197Z" fill="white"/>
</g>
<defs>
<filter id="filter0_d_759_1912" x="0" y="0" width="18" height="18" filterUnits="userSpaceOnUse" color-interpolation-filters="sRGB">
<feFlood flood-opacity="0" result="BackgroundImageFix"/>
<feColorMatrix in="SourceAlpha" type="matrix" values="0 0 0 0 0 0 0 0 0 0 0 0 0 0 0 0 0 0 127 0" result="hardAlpha"/>
<feOffset/>
<feGaussianBlur stdDeviation="2"/>
<feComposite in2="hardAlpha" operator="out"/>
<feColorMatrix type="matrix" values="0 0 0 0 0.615686 0 0 0 0 0.796078 0 0 0 0 0.784314 0 0 0 1 0"/>
<feBlend mode="normal" in2="BackgroundImageFix" result="effect1_dropShadow_759_1912"/>
<feBlend mode="normal" in="SourceGraphic" in2="effect1_dropShadow_759_1912" result="shape"/>
</filter>
<filter id="filter1_d_759_1912" x="0" y="108" width="18" height="18" filterUnits="userSpaceOnUse" color-interpolation-filters="sRGB">
<feFlood flood-opacity="0" result="BackgroundImageFix"/>
<feColorMatrix in="SourceAlpha" type="matrix" values="0 0 0 0 0 0 0 0 0 0 0 0 0 0 0 0 0 0 127 0" result="hardAlpha"/>
<feOffset/>
<feGaussianBlur stdDeviation="2"/>
<feComposite in2="hardAlpha" operator="out"/>
<feColorMatrix type="matrix" values="0 0 0 0 0.615686 0 0 0 0 0.796078 0 0 0 0 0.784314 0 0 0 1 0"/>
<feBlend mode="normal" in2="BackgroundImageFix" result="effect1_dropShadow_759_1912"/>
<feBlend mode="normal" in="SourceGraphic" in2="effect1_dropShadow_759_1912" result="shape"/>
</filter>
<filter id="filter2_d_759_1912" x="0" y="80" width="18" height="18" filterUnits="userSpaceOnUse" color-interpolation-filters="sRGB">
<feFlood flood-opacity="0" result="BackgroundImageFix"/>
<feColorMatrix in="SourceAlpha" type="matrix" values="0 0 0 0 0 0 0 0 0 0 0 0 0 0 0 0 0 0 127 0" result="hardAlpha"/>
<feOffset/>
<feGaussianBlur stdDeviation="2"/>
<feComposite in2="hardAlpha" operator="out"/>
<feColorMatrix type="matrix" values="0 0 0 0 0.615686 0 0 0 0 0.796078 0 0 0 0 0.784314 0 0 0 1 0"/>
<feBlend mode="normal" in2="BackgroundImageFix" result="effect1_dropShadow_759_1912"/>
<feBlend mode="normal" in="SourceGraphic" in2="effect1_dropShadow_759_1912" result="shape"/>
</filter>
<filter id="filter3_d_759_1912" x="0" y="161" width="18" height="18" filterUnits="userSpaceOnUse" color-interpolation-filters="sRGB">
<feFlood flood-opacity="0" result="BackgroundImageFix"/>
<feColorMatrix in="SourceAlpha" type="matrix" values="0 0 0 0 0 0 0 0 0 0 0 0 0 0 0 0 0 0 127 0" result="hardAlpha"/>
<feOffset/>
<feGaussianBlur stdDeviation="2"/>
<feComposite in2="hardAlpha" operator="out"/>
<feColorMatrix type="matrix" values="0 0 0 0 0.615686 0 0 0 0 0.796078 0 0 0 0 0.784314 0 0 0 1 0"/>
<feBlend mode="normal" in2="BackgroundImageFix" result="effect1_dropShadow_759_1912"/>
<feBlend mode="normal" in="SourceGraphic" in2="effect1_dropShadow_759_1912" result="shape"/>
</filter>
<filter id="filter4_d_759_1912" x="0" y="188" width="18" height="18" filterUnits="userSpaceOnUse" color-interpolation-filters="sRGB">
<feFlood flood-opacity="0" result="BackgroundImageFix"/>
<feColorMatrix in="SourceAlpha" type="matrix" values="0 0 0 0 0 0 0 0 0 0 0 0 0 0 0 0 0 0 127 0" result="hardAlpha"/>
<feOffset/>
<feGaussianBlur stdDeviation="2"/>
<feComposite in2="hardAlpha" operator="out"/>
<feColorMatrix type="matrix" values="0 0 0 0 0.615686 0 0 0 0 0.796078 0 0 0 0 0.784314 0 0 0 1 0"/>
<feBlend mode="normal" in2="BackgroundImageFix" result="effect1_dropShadow_759_1912"/>
<feBlend mode="normal" in="SourceGraphic" in2="effect1_dropShadow_759_1912" result="shape"/>
</filter>
</defs>
</svg>
