<svg width="18" height="140" viewBox="0 0 18 140" fill="none" xmlns="http://www.w3.org/2000/svg">
<g style="mix-blend-mode:multiply">
<path d="M9 6L9.00001 128" stroke="#9DCBC8" stroke-linecap="round" stroke-dasharray="2 2"/>
</g>
<g filter="url(#filter0_d_947_900)">
<path d="M14 9C14 11.7614 11.7614 14 9 14C6.23858 14 4 11.7614 4 9C4 6.23858 6.23858 4 9 4C11.7614 4 14 6.23858 14 9Z" fill="white"/>
</g>
<g filter="url(#filter1_d_947_900)">
<path d="M14 70C14 72.7614 11.7614 75 9 75C6.23858 75 4 72.7614 4 70C4 67.2386 6.23858 65 9 65C11.7614 65 14 67.2386 14 70Z" fill="white"/>
</g>
<g filter="url(#filter2_d_947_900)">
<path d="M14 101C14 103.761 11.7614 106 9 106C6.23858 106 4 103.761 4 101C4 98.2386 6.23858 96 9 96C11.7614 96 14 98.2386 14 101Z" fill="white"/>
</g>
<g filter="url(#filter3_d_947_900)">
<path d="M14 131C14 133.761 11.7614 136 9 136C6.23858 136 4 133.761 4 131C4 128.239 6.23858 126 9 126C11.7614 126 14 128.239 14 131Z" fill="white"/>
</g>
<defs>
<filter id="filter0_d_947_900" x="0" y="0" width="18" height="18" filterUnits="userSpaceOnUse" color-interpolation-filters="sRGB">
<feFlood flood-opacity="0" result="BackgroundImageFix"/>
<feColorMatrix in="SourceAlpha" type="matrix" values="0 0 0 0 0 0 0 0 0 0 0 0 0 0 0 0 0 0 127 0" result="hardAlpha"/>
<feOffset/>
<feGaussianBlur stdDeviation="2"/>
<feComposite in2="hardAlpha" operator="out"/>
<feColorMatrix type="matrix" values="0 0 0 0 0.615686 0 0 0 0 0.796078 0 0 0 0 0.784314 0 0 0 1 0"/>
<feBlend mode="normal" in2="BackgroundImageFix" result="effect1_dropShadow_947_900"/>
<feBlend mode="normal" in="SourceGraphic" in2="effect1_dropShadow_947_900" result="shape"/>
</filter>
<filter id="filter1_d_947_900" x="0" y="61" width="18" height="18" filterUnits="userSpaceOnUse" color-interpolation-filters="sRGB">
<feFlood flood-opacity="0" result="BackgroundImageFix"/>
<feColorMatrix in="SourceAlpha" type="matrix" values="0 0 0 0 0 0 0 0 0 0 0 0 0 0 0 0 0 0 127 0" result="hardAlpha"/>
<feOffset/>
<feGaussianBlur stdDeviation="2"/>
<feComposite in2="hardAlpha" operator="out"/>
<feColorMatrix type="matrix" values="0 0 0 0 0.615686 0 0 0 0 0.796078 0 0 0 0 0.784314 0 0 0 1 0"/>
<feBlend mode="normal" in2="BackgroundImageFix" result="effect1_dropShadow_947_900"/>
<feBlend mode="normal" in="SourceGraphic" in2="effect1_dropShadow_947_900" result="shape"/>
</filter>
<filter id="filter2_d_947_900" x="0" y="92" width="18" height="18" filterUnits="userSpaceOnUse" color-interpolation-filters="sRGB">
<feFlood flood-opacity="0" result="BackgroundImageFix"/>
<feColorMatrix in="SourceAlpha" type="matrix" values="0 0 0 0 0 0 0 0 0 0 0 0 0 0 0 0 0 0 127 0" result="hardAlpha"/>
<feOffset/>
<feGaussianBlur stdDeviation="2"/>
<feComposite in2="hardAlpha" operator="out"/>
<feColorMatrix type="matrix" values="0 0 0 0 0.615686 0 0 0 0 0.796078 0 0 0 0 0.784314 0 0 0 1 0"/>
<feBlend mode="normal" in2="BackgroundImageFix" result="effect1_dropShadow_947_900"/>
<feBlend mode="normal" in="SourceGraphic" in2="effect1_dropShadow_947_900" result="shape"/>
</filter>
<filter id="filter3_d_947_900" x="0" y="122" width="18" height="18" filterUnits="userSpaceOnUse" color-interpolation-filters="sRGB">
<feFlood flood-opacity="0" result="BackgroundImageFix"/>
<feColorMatrix in="SourceAlpha" type="matrix" values="0 0 0 0 0 0 0 0 0 0 0 0 0 0 0 0 0 0 127 0" result="hardAlpha"/>
<feOffset/>
<feGaussianBlur stdDeviation="2"/>
<feComposite in2="hardAlpha" operator="out"/>
<feColorMatrix type="matrix" values="0 0 0 0 0.615686 0 0 0 0 0.796078 0 0 0 0 0.784314 0 0 0 1 0"/>
<feBlend mode="normal" in2="BackgroundImageFix" result="effect1_dropShadow_947_900"/>
<feBlend mode="normal" in="SourceGraphic" in2="effect1_dropShadow_947_900" result="shape"/>
</filter>
</defs>
</svg>
