<svg width="8" height="112" viewBox="0 0 8 112" fill="none" xmlns="http://www.w3.org/2000/svg">
<g style="mix-blend-mode:multiply">
<path d="M4.31177 3L4.31176 108" stroke="#9DCBC8" stroke-width="0.5" stroke-linecap="round" stroke-dasharray="0.74 0.74"/>
</g>
<g filter="url(#filter0_d_1045_1549)">
<path d="M5.99291 3.84057C5.99291 4.85709 5.16886 5.68114 4.15234 5.68114C3.13582 5.68114 2.31177 4.85709 2.31177 3.84057C2.31177 2.82405 3.13582 2 4.15234 2C5.16886 2 5.99291 2.82405 5.99291 3.84057Z" fill="white"/>
</g>
<g filter="url(#filter1_d_1045_1549)">
<path d="M5.99291 62.5964C5.99291 63.6129 5.16886 64.437 4.15234 64.437C3.13582 64.437 2.31177 63.6129 2.31177 62.5964C2.31177 61.5799 3.13582 60.7559 4.15234 60.7559C5.16886 60.7559 5.99291 61.5799 5.99291 62.5964Z" fill="white"/>
</g>
<g filter="url(#filter2_d_1045_1549)">
<path d="M5.99291 47.2888C5.99291 48.3053 5.16886 49.1294 4.15234 49.1294C3.13582 49.1294 2.31177 48.3053 2.31177 47.2888C2.31177 46.2723 3.13582 45.4482 4.15234 45.4482C5.16886 45.4482 5.99291 46.2723 5.99291 47.2888Z" fill="white"/>
</g>
<g filter="url(#filter3_d_1045_1549)">
<path d="M5.99291 92.8406C5.99291 93.8571 5.16886 94.6811 4.15234 94.6811C3.13582 94.6811 2.31177 93.8571 2.31177 92.8406C2.31177 91.8241 3.13582 91 4.15234 91C5.16886 91 5.99291 91.8241 5.99291 92.8406Z" fill="white"/>
</g>
<g filter="url(#filter4_d_1045_1549)">
<path d="M5.99291 107.841C5.99291 108.857 5.16886 109.681 4.15234 109.681C3.13582 109.681 2.31177 108.857 2.31177 107.841C2.31177 106.824 3.13582 106 4.15234 106C5.16886 106 5.99291 106.824 5.99291 107.841Z" fill="white"/>
</g>
<defs>
<filter id="filter0_d_1045_1549" x="0.839311" y="0.527544" width="6.62607" height="6.62558" filterUnits="userSpaceOnUse" color-interpolation-filters="sRGB">
<feFlood flood-opacity="0" result="BackgroundImageFix"/>
<feColorMatrix in="SourceAlpha" type="matrix" values="0 0 0 0 0 0 0 0 0 0 0 0 0 0 0 0 0 0 127 0" result="hardAlpha"/>
<feOffset/>
<feGaussianBlur stdDeviation="0.736228"/>
<feComposite in2="hardAlpha" operator="out"/>
<feColorMatrix type="matrix" values="0 0 0 0 0.615686 0 0 0 0 0.796078 0 0 0 0 0.784314 0 0 0 1 0"/>
<feBlend mode="normal" in2="BackgroundImageFix" result="effect1_dropShadow_1045_1549"/>
<feBlend mode="normal" in="SourceGraphic" in2="effect1_dropShadow_1045_1549" result="shape"/>
</filter>
<filter id="filter1_d_1045_1549" x="0.839311" y="59.2834" width="6.62607" height="6.62558" filterUnits="userSpaceOnUse" color-interpolation-filters="sRGB">
<feFlood flood-opacity="0" result="BackgroundImageFix"/>
<feColorMatrix in="SourceAlpha" type="matrix" values="0 0 0 0 0 0 0 0 0 0 0 0 0 0 0 0 0 0 127 0" result="hardAlpha"/>
<feOffset/>
<feGaussianBlur stdDeviation="0.736228"/>
<feComposite in2="hardAlpha" operator="out"/>
<feColorMatrix type="matrix" values="0 0 0 0 0.615686 0 0 0 0 0.796078 0 0 0 0 0.784314 0 0 0 1 0"/>
<feBlend mode="normal" in2="BackgroundImageFix" result="effect1_dropShadow_1045_1549"/>
<feBlend mode="normal" in="SourceGraphic" in2="effect1_dropShadow_1045_1549" result="shape"/>
</filter>
<filter id="filter2_d_1045_1549" x="0.839311" y="43.9758" width="6.62607" height="6.62558" filterUnits="userSpaceOnUse" color-interpolation-filters="sRGB">
<feFlood flood-opacity="0" result="BackgroundImageFix"/>
<feColorMatrix in="SourceAlpha" type="matrix" values="0 0 0 0 0 0 0 0 0 0 0 0 0 0 0 0 0 0 127 0" result="hardAlpha"/>
<feOffset/>
<feGaussianBlur stdDeviation="0.736228"/>
<feComposite in2="hardAlpha" operator="out"/>
<feColorMatrix type="matrix" values="0 0 0 0 0.615686 0 0 0 0 0.796078 0 0 0 0 0.784314 0 0 0 1 0"/>
<feBlend mode="normal" in2="BackgroundImageFix" result="effect1_dropShadow_1045_1549"/>
<feBlend mode="normal" in="SourceGraphic" in2="effect1_dropShadow_1045_1549" result="shape"/>
</filter>
<filter id="filter3_d_1045_1549" x="0.839311" y="89.5275" width="6.62607" height="6.62558" filterUnits="userSpaceOnUse" color-interpolation-filters="sRGB">
<feFlood flood-opacity="0" result="BackgroundImageFix"/>
<feColorMatrix in="SourceAlpha" type="matrix" values="0 0 0 0 0 0 0 0 0 0 0 0 0 0 0 0 0 0 127 0" result="hardAlpha"/>
<feOffset/>
<feGaussianBlur stdDeviation="0.736228"/>
<feComposite in2="hardAlpha" operator="out"/>
<feColorMatrix type="matrix" values="0 0 0 0 0.615686 0 0 0 0 0.796078 0 0 0 0 0.784314 0 0 0 1 0"/>
<feBlend mode="normal" in2="BackgroundImageFix" result="effect1_dropShadow_1045_1549"/>
<feBlend mode="normal" in="SourceGraphic" in2="effect1_dropShadow_1045_1549" result="shape"/>
</filter>
<filter id="filter4_d_1045_1549" x="0.839311" y="104.528" width="6.62607" height="6.62558" filterUnits="userSpaceOnUse" color-interpolation-filters="sRGB">
<feFlood flood-opacity="0" result="BackgroundImageFix"/>
<feColorMatrix in="SourceAlpha" type="matrix" values="0 0 0 0 0 0 0 0 0 0 0 0 0 0 0 0 0 0 127 0" result="hardAlpha"/>
<feOffset/>
<feGaussianBlur stdDeviation="0.736228"/>
<feComposite in2="hardAlpha" operator="out"/>
<feColorMatrix type="matrix" values="0 0 0 0 0.615686 0 0 0 0 0.796078 0 0 0 0 0.784314 0 0 0 1 0"/>
<feBlend mode="normal" in2="BackgroundImageFix" result="effect1_dropShadow_1045_1549"/>
<feBlend mode="normal" in="SourceGraphic" in2="effect1_dropShadow_1045_1549" result="shape"/>
</filter>
</defs>
</svg>
