<svg width="8" height="82" viewBox="0 0 8 82" fill="none" xmlns="http://www.w3.org/2000/svg">
<g style="mix-blend-mode:multiply">
<path d="M4.31177 3L4.31176 79" stroke="#9DCBC8" stroke-width="0.5" stroke-linecap="round" stroke-dasharray="0.74 0.74"/>
</g>
<g filter="url(#filter0_d_1045_1538)">
<path d="M5.99291 3.84057C5.99291 4.85709 5.16886 5.68114 4.15234 5.68114C3.13582 5.68114 2.31177 4.85709 2.31177 3.84057C2.31177 2.82405 3.13582 2 4.15234 2C5.16886 2 5.99291 2.82405 5.99291 3.84057Z" fill="white"/>
</g>
<g filter="url(#filter1_d_1045_1538)">
<path d="M5.99291 19.5173C5.99291 20.5338 5.16886 21.3579 4.15234 21.3579C3.13582 21.3579 2.31177 20.5338 2.31177 19.5173C2.31177 18.5008 3.13582 17.6768 4.15234 17.6768C5.16886 17.6768 5.99291 18.5008 5.99291 19.5173Z" fill="white"/>
</g>
<g filter="url(#filter2_d_1045_1538)">
<path d="M5.99291 49.6023C5.99291 50.6188 5.16886 51.4429 4.15234 51.4429C3.13582 51.4429 2.31177 50.6188 2.31177 49.6023C2.31177 48.5858 3.13582 47.7617 4.15234 47.7617C5.16886 47.7617 5.99291 48.5858 5.99291 49.6023Z" fill="white"/>
</g>
<g filter="url(#filter3_d_1045_1538)">
<path d="M5.99291 78.6892C5.99291 79.7057 5.16886 80.5298 4.15234 80.5298C3.13582 80.5298 2.31177 79.7057 2.31177 78.6892C2.31177 77.6727 3.13582 76.8486 4.15234 76.8486C5.16886 76.8486 5.99291 77.6727 5.99291 78.6892Z" fill="white"/>
</g>
<defs>
<filter id="filter0_d_1045_1538" x="0.839311" y="0.527544" width="6.62607" height="6.62558" filterUnits="userSpaceOnUse" color-interpolation-filters="sRGB">
<feFlood flood-opacity="0" result="BackgroundImageFix"/>
<feColorMatrix in="SourceAlpha" type="matrix" values="0 0 0 0 0 0 0 0 0 0 0 0 0 0 0 0 0 0 127 0" result="hardAlpha"/>
<feOffset/>
<feGaussianBlur stdDeviation="0.736228"/>
<feComposite in2="hardAlpha" operator="out"/>
<feColorMatrix type="matrix" values="0 0 0 0 0.615686 0 0 0 0 0.796078 0 0 0 0 0.784314 0 0 0 1 0"/>
<feBlend mode="normal" in2="BackgroundImageFix" result="effect1_dropShadow_1045_1538"/>
<feBlend mode="normal" in="SourceGraphic" in2="effect1_dropShadow_1045_1538" result="shape"/>
</filter>
<filter id="filter1_d_1045_1538" x="0.839311" y="16.2043" width="6.62607" height="6.62558" filterUnits="userSpaceOnUse" color-interpolation-filters="sRGB">
<feFlood flood-opacity="0" result="BackgroundImageFix"/>
<feColorMatrix in="SourceAlpha" type="matrix" values="0 0 0 0 0 0 0 0 0 0 0 0 0 0 0 0 0 0 127 0" result="hardAlpha"/>
<feOffset/>
<feGaussianBlur stdDeviation="0.736228"/>
<feComposite in2="hardAlpha" operator="out"/>
<feColorMatrix type="matrix" values="0 0 0 0 0.615686 0 0 0 0 0.796078 0 0 0 0 0.784314 0 0 0 1 0"/>
<feBlend mode="normal" in2="BackgroundImageFix" result="effect1_dropShadow_1045_1538"/>
<feBlend mode="normal" in="SourceGraphic" in2="effect1_dropShadow_1045_1538" result="shape"/>
</filter>
<filter id="filter2_d_1045_1538" x="0.839311" y="46.2893" width="6.62607" height="6.62558" filterUnits="userSpaceOnUse" color-interpolation-filters="sRGB">
<feFlood flood-opacity="0" result="BackgroundImageFix"/>
<feColorMatrix in="SourceAlpha" type="matrix" values="0 0 0 0 0 0 0 0 0 0 0 0 0 0 0 0 0 0 127 0" result="hardAlpha"/>
<feOffset/>
<feGaussianBlur stdDeviation="0.736228"/>
<feComposite in2="hardAlpha" operator="out"/>
<feColorMatrix type="matrix" values="0 0 0 0 0.615686 0 0 0 0 0.796078 0 0 0 0 0.784314 0 0 0 1 0"/>
<feBlend mode="normal" in2="BackgroundImageFix" result="effect1_dropShadow_1045_1538"/>
<feBlend mode="normal" in="SourceGraphic" in2="effect1_dropShadow_1045_1538" result="shape"/>
</filter>
<filter id="filter3_d_1045_1538" x="0.839311" y="75.3762" width="6.62607" height="6.62558" filterUnits="userSpaceOnUse" color-interpolation-filters="sRGB">
<feFlood flood-opacity="0" result="BackgroundImageFix"/>
<feColorMatrix in="SourceAlpha" type="matrix" values="0 0 0 0 0 0 0 0 0 0 0 0 0 0 0 0 0 0 127 0" result="hardAlpha"/>
<feOffset/>
<feGaussianBlur stdDeviation="0.736228"/>
<feComposite in2="hardAlpha" operator="out"/>
<feColorMatrix type="matrix" values="0 0 0 0 0.615686 0 0 0 0 0.796078 0 0 0 0 0.784314 0 0 0 1 0"/>
<feBlend mode="normal" in2="BackgroundImageFix" result="effect1_dropShadow_1045_1538"/>
<feBlend mode="normal" in="SourceGraphic" in2="effect1_dropShadow_1045_1538" result="shape"/>
</filter>
</defs>
</svg>
