<svg width="18" height="167" viewBox="0 0 18 167" fill="none" xmlns="http://www.w3.org/2000/svg">
<g style="mix-blend-mode:multiply">
<path d="M9 6L9.00001 159" stroke="#9DCBC8" stroke-linecap="round" stroke-dasharray="2 2"/>
</g>
<g filter="url(#filter0_d_759_1901)">
<path d="M14 9C14 11.7614 11.7614 14 9 14C6.23858 14 4 11.7614 4 9C4 6.23858 6.23858 4 9 4C11.7614 4 14 6.23858 14 9Z" fill="white"/>
</g>
<g filter="url(#filter1_d_759_1901)">
<path d="M14 38C14 40.7614 11.7614 43 9 43C6.23858 43 4 40.7614 4 38C4 35.2386 6.23858 33 9 33C11.7614 33 14 35.2386 14 38Z" fill="white"/>
</g>
<g filter="url(#filter2_d_759_1901)">
<path d="M14 98C14 100.761 11.7614 103 9 103C6.23858 103 4 100.761 4 98C4 95.2386 6.23858 93 9 93C11.7614 93 14 95.2386 14 98Z" fill="white"/>
</g>
<g filter="url(#filter3_d_759_1901)">
<path d="M14 158C14 160.761 11.7614 163 9 163C6.23858 163 4 160.761 4 158C4 155.239 6.23858 153 9 153C11.7614 153 14 155.239 14 158Z" fill="white"/>
</g>
<defs>
<filter id="filter0_d_759_1901" x="0" y="0" width="18" height="18" filterUnits="userSpaceOnUse" color-interpolation-filters="sRGB">
<feFlood flood-opacity="0" result="BackgroundImageFix"/>
<feColorMatrix in="SourceAlpha" type="matrix" values="0 0 0 0 0 0 0 0 0 0 0 0 0 0 0 0 0 0 127 0" result="hardAlpha"/>
<feOffset/>
<feGaussianBlur stdDeviation="2"/>
<feComposite in2="hardAlpha" operator="out"/>
<feColorMatrix type="matrix" values="0 0 0 0 0.615686 0 0 0 0 0.796078 0 0 0 0 0.784314 0 0 0 1 0"/>
<feBlend mode="normal" in2="BackgroundImageFix" result="effect1_dropShadow_759_1901"/>
<feBlend mode="normal" in="SourceGraphic" in2="effect1_dropShadow_759_1901" result="shape"/>
</filter>
<filter id="filter1_d_759_1901" x="0" y="29" width="18" height="18" filterUnits="userSpaceOnUse" color-interpolation-filters="sRGB">
<feFlood flood-opacity="0" result="BackgroundImageFix"/>
<feColorMatrix in="SourceAlpha" type="matrix" values="0 0 0 0 0 0 0 0 0 0 0 0 0 0 0 0 0 0 127 0" result="hardAlpha"/>
<feOffset/>
<feGaussianBlur stdDeviation="2"/>
<feComposite in2="hardAlpha" operator="out"/>
<feColorMatrix type="matrix" values="0 0 0 0 0.615686 0 0 0 0 0.796078 0 0 0 0 0.784314 0 0 0 1 0"/>
<feBlend mode="normal" in2="BackgroundImageFix" result="effect1_dropShadow_759_1901"/>
<feBlend mode="normal" in="SourceGraphic" in2="effect1_dropShadow_759_1901" result="shape"/>
</filter>
<filter id="filter2_d_759_1901" x="0" y="89" width="18" height="18" filterUnits="userSpaceOnUse" color-interpolation-filters="sRGB">
<feFlood flood-opacity="0" result="BackgroundImageFix"/>
<feColorMatrix in="SourceAlpha" type="matrix" values="0 0 0 0 0 0 0 0 0 0 0 0 0 0 0 0 0 0 127 0" result="hardAlpha"/>
<feOffset/>
<feGaussianBlur stdDeviation="2"/>
<feComposite in2="hardAlpha" operator="out"/>
<feColorMatrix type="matrix" values="0 0 0 0 0.615686 0 0 0 0 0.796078 0 0 0 0 0.784314 0 0 0 1 0"/>
<feBlend mode="normal" in2="BackgroundImageFix" result="effect1_dropShadow_759_1901"/>
<feBlend mode="normal" in="SourceGraphic" in2="effect1_dropShadow_759_1901" result="shape"/>
</filter>
<filter id="filter3_d_759_1901" x="0" y="149" width="18" height="18" filterUnits="userSpaceOnUse" color-interpolation-filters="sRGB">
<feFlood flood-opacity="0" result="BackgroundImageFix"/>
<feColorMatrix in="SourceAlpha" type="matrix" values="0 0 0 0 0 0 0 0 0 0 0 0 0 0 0 0 0 0 127 0" result="hardAlpha"/>
<feOffset/>
<feGaussianBlur stdDeviation="2"/>
<feComposite in2="hardAlpha" operator="out"/>
<feColorMatrix type="matrix" values="0 0 0 0 0.615686 0 0 0 0 0.796078 0 0 0 0 0.784314 0 0 0 1 0"/>
<feBlend mode="normal" in2="BackgroundImageFix" result="effect1_dropShadow_759_1901"/>
<feBlend mode="normal" in="SourceGraphic" in2="effect1_dropShadow_759_1901" result="shape"/>
</filter>
</defs>
</svg>
