<?xml version="1.0" encoding="UTF-8"?>
<svg id="_レイヤー_2" data-name="レイヤー 2" xmlns="http://www.w3.org/2000/svg" viewBox="0 0 435.21 91.32">
  <defs>
    <style>
      .cls-1 {
        fill: #2bb8d9;
      }

      .cls-2 {
        fill: #131d34;
      }
    </style>
  </defs>
  <g id="_レイヤー_1-2" data-name="レイヤー 1">
    <g>
      <path class="cls-2" d="M41.56,90.14c-.86,0-1.29-.32-1.61-1.08l-14-28.53h-12.6c-.43,0-.65.22-.65.65v27.88c0,.65-.43,1.08-1.08,1.08H1.08c-.65,0-1.08-.43-1.08-1.08V18.01c0-.65.43-1.08,1.08-1.08h28.31c13.46,0,23.36,8.94,23.36,21.86,0,9.58-5.49,17.01-13.89,20.13l15.4,29.82c.43.75,0,1.4-.75,1.4h-11.95ZM40.16,38.78c0-6.35-4.52-10.44-11.2-10.44h-15.61c-.43,0-.65.22-.65.65v19.49c0,.43.22.65.65.65h15.61c6.67,0,11.2-4.09,11.2-10.34Z"/>
      <path class="cls-2" d="M94.63,90.14c-.65,0-1.08-.43-1.08-1.08v-3.77h-.11c-2.48,3.55-7.32,6.03-14.64,6.03-9.47,0-17.44-4.95-17.44-15.83s7.97-16.47,20.78-16.47h10.55c.43,0,.65-.21.65-.65v-2.48c0-5.92-2.8-8.61-11.52-8.61-5.81,0-9.37,1.61-11.84,3.55-.54.43-1.18.32-1.51-.21l-3.98-7.11c-.32-.54-.22-1.08.21-1.4,4.2-3.01,9.91-5.06,18.41-5.06,15.83,0,21.64,5.38,21.64,18.09v33.91c0,.65-.43,1.08-1.08,1.08h-9.04ZM93.34,72.7v-3.98c0-.43-.22-.65-.65-.65h-8.61c-7.75,0-11.2,2.15-11.2,7,0,4.31,3.12,6.46,8.94,6.46,7.43,0,11.52-2.91,11.52-8.83Z"/>
      <path class="cls-2" d="M118.42,38.25h9.91c.59,0,1.08.48,1.08,1.08v49.74c0,.59-.48,1.08-1.08,1.08h-9.9c-.59,0-1.08-.48-1.08-1.08v-49.74c0-.59.48-1.08,1.08-1.08Z"/>
      <path class="cls-2" d="M139.31,83.14c-.43-.43-.43-1.08,0-1.51l6.14-6.46c.43-.43,1.08-.43,1.51,0,3.77,3.45,9.8,5.92,15.18,5.92,6.35,0,9.58-2.58,9.58-6.14,0-3.12-1.83-5.06-8.61-5.71l-5.6-.54c-10.55-1.08-15.93-6.46-15.93-15.29,0-10.01,7.21-16.36,20.13-16.36,8.07,0,14.86,2.69,19.49,6.35.54.43.54,1.08.22,1.51l-5.28,6.35c-.43.54-.97.54-1.51.21-3.23-2.26-8.4-4.31-13.57-4.31s-7.86,2.26-7.86,5.38,1.83,4.84,8.51,5.49l5.6.54c10.87,1.08,16.04,6.67,16.04,15.18,0,10.34-7.54,17.55-21.75,17.55-10.66,0-17.98-4.2-22.29-8.18Z"/>
      <path class="cls-2" d="M192.38,76.9c-1.08-3.34-1.83-7.32-1.83-12.7s.65-9.47,1.72-12.81c2.91-9.04,10.87-14.32,21.21-14.32s18.41,5.49,21.32,14.32c1.18,3.66,1.72,7.21,1.72,15.61,0,.65-.43,1.08-1.18,1.08h-31.98c-.43,0-.65.22-.65.65,0,1.51.32,2.8.75,3.98,1.72,5.06,5.81,7.86,11.63,7.86s9.58-2.15,12.17-4.95c.54-.54,1.08-.65,1.61-.22l6.35,5.6c.54.43.54.97.11,1.51-4.41,5.17-11.74,8.83-21.32,8.83-10.98,0-18.73-5.38-21.64-14.43ZM223.71,53.96c-1.4-4.2-5.28-6.68-10.12-6.68s-8.83,2.48-10.23,6.68c-.43,1.29-.65,2.58-.65,4.41,0,.43.22.65.65.65h20.35c.43,0,.65-.21.65-.65,0-1.83-.22-3.12-.65-4.41Z"/>
      <path class="cls-2" d="M258,90.14c-.65,0-1.08-.43-1.08-1.08V28.99c0-.43-.21-.65-.65-.65h-19.16c-.65,0-1.08-.43-1.08-1.08v-9.26c0-.65.43-1.08,1.08-1.08h52.32c.65,0,1.08.43,1.08,1.08v9.26c0,.65-.43,1.08-1.08,1.08h-19.16c-.43,0-.65.22-.65.65v60.08c0,.65-.43,1.08-1.08,1.08h-10.55Z"/>
      <path class="cls-2" d="M288.58,76.9c-1.08-3.34-1.83-7.32-1.83-12.7s.65-9.47,1.72-12.81c2.91-9.04,10.87-14.32,21.21-14.32s18.41,5.49,21.32,14.32c1.18,3.66,1.72,7.21,1.72,15.61,0,.65-.43,1.08-1.18,1.08h-31.98c-.43,0-.65.22-.65.65,0,1.51.32,2.8.75,3.98,1.72,5.06,5.81,7.86,11.63,7.86s9.58-2.15,12.17-4.95c.54-.54,1.08-.65,1.61-.22l6.35,5.6c.54.43.54.97.11,1.51-4.41,5.17-11.74,8.83-21.32,8.83-10.98,0-18.73-5.38-21.64-14.43ZM319.91,53.96c-1.4-4.2-5.28-6.68-10.12-6.68s-8.83,2.48-10.23,6.68c-.43,1.29-.65,2.58-.65,4.41,0,.43.22.65.65.65h20.35c.43,0,.65-.21.65-.65,0-1.83-.21-3.12-.65-4.41Z"/>
      <path class="cls-2" d="M341.77,77c-1.08-3.23-1.61-7.32-1.61-12.81s.54-9.58,1.61-12.81c3.01-9.26,10.98-14.32,21.42-14.32,7.75,0,13.89,3.12,17.98,8.07.32.43.43,1.08-.11,1.51l-6.78,5.92c-.54.43-1.08.32-1.51-.22-2.58-2.91-5.28-4.52-9.58-4.52-4.63,0-8.18,2.26-9.69,6.78-.86,2.58-1.08,5.6-1.08,9.58s.22,7.11,1.08,9.69c1.51,4.41,5.06,6.67,9.69,6.67,4.31,0,7-1.61,9.58-4.52.43-.54.97-.54,1.51-.11l6.78,5.92c.54.43.43.97.11,1.51-4.09,4.84-10.23,7.97-17.98,7.97-10.44,0-18.41-5.06-21.42-14.32Z"/>
      <path class="cls-2" d="M424.23,90.14c-.65,0-1.08-.43-1.08-1.08v-29.93c0-6.68-3.34-11.3-9.8-11.3s-9.9,4.63-9.9,11.3v29.93c0,.65-.43,1.08-1.08,1.08h-9.91c-.65,0-1.08-.43-1.08-1.08V18.01c0-.65.43-1.08,1.08-1.08h9.91c.65,0,1.08.43,1.08,1.08v25.09h.11c2.26-3.23,6.78-6.03,13.67-6.03,11.09,0,17.98,8.18,17.98,19.27v32.73c0,.65-.43,1.08-1.08,1.08h-9.9Z"/>
      <path class="cls-1" d="M107.47,30.84h31.81c1.78,0,2.93-1.66,2.1-3.05L125.48,1.12c-.89-1.49-3.31-1.49-4.2,0l-15.91,26.68c-.83,1.39.32,3.05,2.1,3.05Z"/>
    </g>
  </g>
</svg>