<svg width="210" height="44" viewBox="0 0 210 44" fill="none" xmlns="http://www.w3.org/2000/svg">
<g id="Clip path group">
<mask id="mask0_759_1807" style="mask-type:luminance" maskUnits="userSpaceOnUse" x="0" y="0" width="210" height="44">
<g id="clippath">
<path id="Vector" d="M209.532 0H0V43.966H209.532V0Z" fill="white"/>
</g>
</mask>
<g mask="url(#mask0_759_1807)">
<g id="Group">
<g id="Clip path group_2">
<mask id="mask1_759_1807" style="mask-type:luminance" maskUnits="userSpaceOnUse" x="0" y="-1" width="210" height="45">
<g id="clippath-1">
<path id="Vector_2" d="M209.532 -0.00195312H0V43.964H209.532V-0.00195312Z" fill="white"/>
</g>
</mask>
<g mask="url(#mask1_759_1807)">
<g id="Group_2">
<path id="Vector_3" d="M20.009 43.3973C19.595 43.3973 19.388 43.2432 19.2291 42.8773L12.4888 29.1416H6.42253C6.21551 29.1416 6.10959 29.2475 6.10959 29.4545V42.8773C6.10959 43.1903 5.90257 43.3973 5.58963 43.3973H0.519965C0.207023 43.3973 0 43.1903 0 42.8773V8.67036C0 8.35741 0.207023 8.15039 0.519965 8.15039H14.1546C20.6349 8.15039 25.4013 12.4545 25.4013 18.6749C25.4013 23.2872 22.7581 26.8643 18.7139 28.3664L26.1283 42.7233C26.3353 43.0844 26.1283 43.3973 25.7672 43.3973H20.0138H20.009ZM19.335 18.6749C19.335 15.6177 17.1589 13.6485 13.9428 13.6485H6.42735C6.22032 13.6485 6.11441 13.7545 6.11441 13.9615V23.3449C6.11441 23.552 6.22032 23.6579 6.42735 23.6579H13.9428C17.154 23.6579 19.335 21.6887 19.335 18.6845" fill="white"/>
<path id="Vector_4" d="M45.5594 43.3961C45.2465 43.3961 45.0395 43.1891 45.0395 42.8761V41.0611H44.9865C43.7925 42.7702 41.4623 43.9642 37.9381 43.9642C33.3788 43.9642 29.5416 41.581 29.5416 36.3477C29.5416 31.1143 33.3788 28.4182 39.5461 28.4182H44.6254C44.8325 28.4182 44.9384 28.3123 44.9384 28.1053V26.9113C44.9384 24.0611 43.5903 22.766 39.3921 22.766C36.5949 22.766 34.8809 23.5459 33.6917 24.4751C33.4317 24.6821 33.1236 24.6292 32.9647 24.3692L31.0486 20.9461C30.8945 20.6861 30.9426 20.4261 31.1497 20.2721C33.1718 18.8229 35.916 17.8359 40.0131 17.8359C47.6345 17.8359 50.4317 20.4261 50.4317 26.5454V42.8713C50.4317 43.1842 50.2247 43.3913 49.9117 43.3913H45.5594V43.3961ZM44.9384 34.9996V33.0834C44.9384 32.8764 44.8373 32.7705 44.6254 32.7705H40.4802C36.7489 32.7705 35.0879 33.8056 35.0879 36.1406C35.0879 38.2157 36.59 39.2508 39.3921 39.2508C42.9692 39.2508 44.9384 37.8498 44.9384 34.9996Z" fill="white"/>
<path id="Vector_5" d="M61.7846 18.4141H57.0183C56.7311 18.4141 56.4983 18.6469 56.4983 18.934V42.8765C56.4983 43.1637 56.7311 43.3965 57.0183 43.3965H61.7846C62.0718 43.3965 62.3046 43.1637 62.3046 42.8765V18.934C62.3046 18.6469 62.0718 18.4141 61.7846 18.4141Z" fill="white"/>
<path id="Vector_6" d="M67.0708 40.0268C66.8638 39.8198 66.8638 39.5069 67.0708 39.2999L70.0269 36.1897C70.2339 35.9827 70.5469 35.9827 70.7539 36.1897C72.569 37.8507 75.4721 39.0399 78.0623 39.0399C81.1195 39.0399 82.6746 37.7977 82.6746 36.0838C82.6746 34.5816 81.7935 33.6476 78.5293 33.3347L75.8332 33.0747C70.7539 32.5547 68.1637 29.9646 68.1637 25.7134C68.1637 20.894 71.6349 17.832 77.8553 17.832C81.7406 17.832 85.0096 19.1271 87.2387 20.8892C87.4987 21.0963 87.4987 21.4092 87.3398 21.6162L84.8026 24.6734C84.5955 24.9334 84.3356 24.9334 84.0756 24.7745C82.5205 23.6865 80.0314 22.6995 77.5423 22.6995C75.0532 22.6995 73.7581 23.7876 73.7581 25.2897C73.7581 26.7918 74.6392 27.6199 77.8553 27.9328L80.5514 28.1928C85.7847 28.708 88.2738 31.4041 88.2738 35.5012C88.2738 40.4794 84.6437 43.9507 77.8023 43.9507C72.6701 43.9507 69.1458 41.9286 67.0708 40.0124" fill="white"/>
<path id="Vector_7" d="M92.6212 37.0218C92.1012 35.4138 91.7401 33.4976 91.7401 30.9074C91.7401 28.3172 92.0531 26.3481 92.5682 24.7401C93.9692 20.3878 97.8016 17.8457 102.78 17.8457C107.758 17.8457 111.643 20.4889 113.044 24.7401C113.612 26.5022 113.872 28.2113 113.872 32.2555C113.872 32.5684 113.665 32.7754 113.304 32.7754H97.9075C97.7005 32.7754 97.5945 32.8814 97.5945 33.0884C97.5945 33.8154 97.7486 34.4364 97.9556 35.0046C98.7837 37.4407 100.753 38.7887 103.555 38.7887C106.357 38.7887 108.167 37.7536 109.414 36.4056C109.674 36.1456 109.934 36.0926 110.194 36.2997L113.251 38.9958C113.511 39.2028 113.511 39.4628 113.304 39.7228C111.181 42.2119 107.652 43.974 103.04 43.974C97.7534 43.974 94.0222 41.3838 92.6212 37.0266M107.705 25.987C107.031 23.9649 105.168 22.7757 102.833 22.7757C100.498 22.7757 98.5815 23.9697 97.9075 25.987C97.7005 26.6081 97.5945 27.2291 97.5945 28.1102C97.5945 28.3172 97.7005 28.4231 97.9075 28.4231H107.705C107.912 28.4231 108.018 28.3172 108.018 28.1102C108.018 27.2291 107.917 26.6081 107.705 25.987Z" fill="white"/>
<path id="Vector_8" d="M124.214 43.3962C123.901 43.3962 123.694 43.1892 123.694 42.8763V13.9556C123.694 13.7486 123.593 13.6427 123.381 13.6427H114.157C113.844 13.6427 113.637 13.4357 113.637 13.1227V8.6645C113.637 8.35155 113.844 8.14453 114.157 8.14453H139.346C139.659 8.14453 139.866 8.35155 139.866 8.6645V13.1227C139.866 13.4357 139.659 13.6427 139.346 13.6427H130.121C129.914 13.6427 129.808 13.7486 129.808 13.9556V42.8763C129.808 43.1892 129.601 43.3962 129.289 43.3962H124.209H124.214Z" fill="white"/>
<path id="Vector_9" d="M138.937 37.0218C138.417 35.4138 138.056 33.4976 138.056 30.9074C138.056 28.3172 138.368 26.3481 138.884 24.7401C140.285 20.3878 144.117 17.8457 149.095 17.8457C154.073 17.8457 157.959 20.4889 159.36 24.7401C159.928 26.5022 160.188 28.2113 160.188 32.2555C160.188 32.5684 159.981 32.7754 159.62 32.7754H144.223C144.016 32.7754 143.91 32.8814 143.91 33.0884C143.91 33.8154 144.064 34.4364 144.276 35.0046C145.104 37.4407 147.073 38.7887 149.875 38.7887C152.677 38.7887 154.487 37.7536 155.734 36.4056C155.994 36.1456 156.254 36.0926 156.509 36.2997L159.567 38.9958C159.827 39.2028 159.827 39.4628 159.62 39.7228C157.496 42.2119 153.967 43.974 149.355 43.974C144.069 43.974 140.338 41.3838 138.937 37.0266M154.02 25.987C153.346 23.9649 151.483 22.7757 149.148 22.7757C146.813 22.7757 144.897 23.9697 144.223 25.987C144.016 26.6081 143.91 27.2291 143.91 28.1102C143.91 28.3172 144.016 28.4231 144.223 28.4231H154.02C154.227 28.4231 154.333 28.3172 154.333 28.1102C154.333 27.2291 154.232 26.6081 154.02 25.987Z" fill="white"/>
<path id="Vector_10" d="M164.545 37.0709C164.025 35.5158 163.77 33.5467 163.77 30.9035C163.77 28.2604 164.03 26.2912 164.545 24.7362C165.994 20.2779 169.831 17.8418 174.857 17.8418C178.589 17.8418 181.545 19.3439 183.514 21.7319C183.668 21.9389 183.721 22.2519 183.461 22.4589L180.197 25.3091C179.937 25.5161 179.677 25.4631 179.47 25.2032C178.228 23.8021 176.928 23.027 174.857 23.027C172.628 23.027 170.919 24.1151 170.192 26.2912C169.778 27.5334 169.672 28.9873 169.672 30.9035C169.672 32.8197 169.778 34.3218 170.192 35.5688C170.919 37.6919 172.628 38.7848 174.857 38.7848C176.932 38.7848 178.228 38.0049 179.47 36.6087C179.677 36.3487 179.937 36.3487 180.197 36.5557L183.461 39.4059C183.721 39.6129 183.668 39.8729 183.514 40.1329C181.545 42.4631 178.589 43.9701 174.857 43.9701C169.831 43.9701 165.994 41.5339 164.545 37.0757" fill="white"/>
<path id="Vector_11" d="M204.245 43.3973C203.932 43.3973 203.725 43.1903 203.725 42.8773V28.4676C203.725 25.2563 202.117 23.0272 199.007 23.0272C195.897 23.0272 194.241 25.2563 194.241 28.4676V42.8773C194.241 43.1903 194.034 43.3973 193.721 43.3973H188.955C188.642 43.3973 188.435 43.1903 188.435 42.8773V8.67036C188.435 8.35741 188.642 8.15039 188.955 8.15039H193.721C194.034 8.15039 194.241 8.35741 194.241 8.67036V20.7499H194.294C195.382 19.1948 197.558 17.8468 200.875 17.8468C206.214 17.8468 209.532 21.785 209.532 27.1243V42.8821C209.532 43.1951 209.325 43.4021 209.012 43.4021H204.245V43.3973Z" fill="white"/>
<path id="Vector_12" d="M51.7413 14.8467H67.0562C67.9131 14.8467 68.4668 14.0475 68.0672 13.3783L60.4122 0.53802C59.9837 -0.17934 58.8186 -0.17934 58.3901 0.53802L50.735 13.3831C50.3354 14.0523 50.8891 14.8515 51.7461 14.8515" fill="white"/>
</g>
</g>
</g>
</g>
</g>
</g>
</svg>
