<svg width="45" height="45" viewBox="0 0 45 45" fill="none" xmlns="http://www.w3.org/2000/svg">
<path d="M22.4802 0.227998C25.5202 0.227998 28.3682 0.803998 31.0242 1.956C33.6802 3.076 36.0162 4.66 38.0322 6.708C40.0802 8.724 41.6642 11.06 42.7842 13.716C43.9362 16.372 44.5122 19.22 44.5122 22.26C44.5122 25.3 43.9362 28.148 42.7842 30.804C41.6642 33.46 40.0802 35.812 38.0322 37.86C36.0162 39.876 33.6802 41.444 31.0242 42.564C28.3682 43.716 25.5202 44.292 22.4802 44.292C19.4402 44.292 16.5922 43.716 13.9362 42.564C11.2802 41.444 8.92823 39.876 6.88023 37.86C4.86422 35.812 3.28022 33.46 2.12822 30.804C1.00822 28.148 0.448225 25.3 0.448225 22.26C0.448225 19.22 1.00822 16.372 2.12822 13.716C3.28022 11.06 4.86422 8.724 6.88023 6.708C8.92823 4.66 11.2802 3.076 13.9362 1.956C16.5922 0.803998 19.4402 0.227998 22.4802 0.227998ZM22.4802 6.132C20.2722 6.132 18.1922 6.548 16.2402 7.38C14.2882 8.212 12.5602 9.38 11.0562 10.884C9.58423 12.356 8.43222 14.068 7.60023 16.02C6.76822 17.94 6.35222 20.02 6.35222 22.26C6.35222 24.468 6.76822 26.548 7.60023 28.5C8.43222 30.452 9.58423 32.18 11.0562 33.684C12.5602 35.156 14.2882 36.308 16.2402 37.14C18.1922 37.972 20.2722 38.388 22.4802 38.388C24.7202 38.388 26.8002 37.972 28.7202 37.14C30.6722 36.308 32.3842 35.156 33.8562 33.684C35.3602 32.18 36.5282 30.452 37.3602 28.5C38.1922 26.548 38.6082 24.468 38.6082 22.26C38.6082 20.02 38.1922 17.94 37.3602 16.02C36.5282 14.068 35.3602 12.356 33.8562 10.884C32.3842 9.38 30.6722 8.212 28.7202 7.38C26.8002 6.548 24.7202 6.132 22.4802 6.132Z" fill="#FFCF8C"/>
</svg>
