<svg width="45" height="45" viewBox="0 0 45 45" fill="none" xmlns="http://www.w3.org/2000/svg">
<path d="M22.6836 0.727998C25.7236 0.727998 28.5716 1.304 31.2276 2.456C33.8836 3.576 36.2196 5.16 38.2356 7.208C40.2836 9.224 41.8676 11.56 42.9876 14.216C44.1396 16.872 44.7156 19.72 44.7156 22.76C44.7156 25.8 44.1396 28.648 42.9876 31.304C41.8676 33.96 40.2836 36.312 38.2356 38.36C36.2196 40.376 33.8836 41.944 31.2276 43.064C28.5716 44.216 25.7236 44.792 22.6836 44.792C19.6436 44.792 16.7956 44.216 14.1396 43.064C11.4836 41.944 9.13159 40.376 7.08359 38.36C5.06759 36.312 3.48359 33.96 2.33159 31.304C1.21159 28.648 0.651594 25.8 0.651594 22.76C0.651594 19.72 1.21159 16.872 2.33159 14.216C3.48359 11.56 5.06759 9.224 7.08359 7.208C9.13159 5.16 11.4836 3.576 14.1396 2.456C16.7956 1.304 19.6436 0.727998 22.6836 0.727998ZM22.6836 6.632C20.4756 6.632 18.3956 7.048 16.4436 7.88C14.4916 8.712 12.7636 9.88 11.2596 11.384C9.78759 12.856 8.63559 14.568 7.80359 16.52C6.97159 18.44 6.55559 20.52 6.55559 22.76C6.55559 24.968 6.97159 27.048 7.80359 29C8.63559 30.952 9.78759 32.68 11.2596 34.184C12.7636 35.656 14.4916 36.808 16.4436 37.64C18.3956 38.472 20.4756 38.888 22.6836 38.888C24.9236 38.888 27.0036 38.472 28.9236 37.64C30.8756 36.808 32.5876 35.656 34.0596 34.184C35.5636 32.68 36.7316 30.952 37.5636 29C38.3956 27.048 38.8116 24.968 38.8116 22.76C38.8116 20.52 38.3956 18.44 37.5636 16.52C36.7316 14.568 35.5636 12.856 34.0596 11.384C32.5876 9.88 30.8756 8.712 28.9236 7.88C27.0036 7.048 24.9236 6.632 22.6836 6.632Z" fill="#2BB8D9"/>
</svg>
