<svg width="55" height="56" viewBox="0 0 55 56" fill="none" xmlns="http://www.w3.org/2000/svg">
<circle cx="26.9207" cy="26.9207" r="21.8653" transform="rotate(-15.5279 26.9207 26.9207)" fill="white"/>
<circle cx="26.9197" cy="26.9207" r="19.9268" transform="rotate(-15.5279 26.9197 26.9207)" stroke="#2BB8D9" stroke-width="0.637721"/>
<path d="M48.7693 44.1607L42.1951 41.8701L45.1725 38.2L48.7693 44.1607Z" fill="white"/>
<path d="M15.7433 21.0976L17.2799 21.5435C17.0487 22.0216 16.7742 22.4912 16.4562 22.9524C16.1383 23.4136 15.7941 23.8403 15.4237 24.2325C15.0621 24.6246 14.7001 24.9691 14.3378 25.2659C14.2505 25.1624 14.1285 25.0462 13.9718 24.9171C13.815 24.788 13.6539 24.6633 13.4885 24.5429C13.3232 24.4226 13.1796 24.3237 13.0578 24.2465C13.6103 23.8792 14.1276 23.4168 14.6096 22.8593C15.0917 22.3018 15.4696 21.7145 15.7433 21.0976ZM15.6474 22.4762L24.6042 22.4234L24.6123 23.7883L15.2785 23.8434L15.6474 22.4762ZM13.3513 25.5187L25.1031 25.4495L25.1113 26.8404L13.3595 26.9097L13.3513 25.5187ZM13.5772 28.5595L24.926 28.4926L24.9342 29.8835L13.5854 29.9504L13.5772 28.5595ZM17.4052 22.9468L18.7052 22.9391L18.7424 29.257L17.4424 29.2647L17.4052 22.9468ZM15.0912 22.9604L16.4822 22.9522L16.5195 29.2831L15.1286 29.2913L15.0912 22.9604ZM19.6672 22.9335L20.9671 22.9258L21.0045 29.2567L19.7045 29.2644L19.6672 22.9335ZM21.9551 22.92L23.3851 22.9116L23.4224 29.2424L21.9924 29.2509L21.9551 22.92ZM17.0607 30.658L18.5027 30.4935C18.5917 30.8829 18.6678 31.3072 18.7312 31.7661C18.8033 32.2251 18.8446 32.6148 18.8551 32.9354L17.3224 33.1655C17.3212 32.9575 17.3068 32.7106 17.2791 32.4247C17.2601 32.1388 17.2323 31.84 17.1958 31.5282C17.1593 31.2164 17.1142 30.9263 17.0607 30.658ZM19.6478 30.6817L21.1024 30.4261C21.2165 30.6768 21.3264 30.9492 21.4322 31.2432C21.5379 31.5373 21.6306 31.8227 21.7102 32.0996C21.7899 32.3765 21.8477 32.6275 21.8837 32.8526L20.3255 33.1608C20.2802 32.8404 20.1913 32.4465 20.0585 31.9793C19.9344 31.512 19.7975 31.0795 19.6478 30.6817ZM22.2213 30.5885L23.7136 30.1117C23.9231 30.3792 24.1328 30.6683 24.3427 30.979C24.5525 31.2898 24.7537 31.6006 24.9462 31.9115C25.1386 32.2137 25.2876 32.4858 25.393 32.7279L23.7972 33.2703C23.7005 33.0369 23.5645 32.7647 23.3894 32.4537C23.2228 32.1427 23.0347 31.8274 22.8248 31.508C22.6235 31.1799 22.4224 30.8734 22.2213 30.5885ZM14.718 30.2168L16.2282 30.5849C16.0838 31.0797 15.883 31.5749 15.626 32.0705C15.3689 32.566 15.081 32.988 14.7624 33.3366L13.2638 32.7344C13.5569 32.4553 13.8363 32.0853 14.1023 31.6244C14.3683 31.1635 14.5735 30.6943 14.718 30.2168ZM29.7184 21.0802L31.1484 21.0718L31.2198 33.1875L29.7898 33.196L29.7184 21.0802ZM27.7677 25.3688L33.0976 25.3373L33.1062 26.7933L27.7762 26.8247L27.7677 25.3688ZM29.4622 26.1258L30.3357 26.5496C30.2256 26.9836 30.0983 27.4437 29.9538 27.9299C29.8093 28.4074 29.6474 28.8851 29.4682 29.3628C29.289 29.8405 29.101 30.2923 28.9042 30.7182C28.7073 31.1353 28.4972 31.5006 28.2737 31.8139C28.2294 31.6495 28.1633 31.4722 28.0755 31.282C27.9964 31.0832 27.9085 30.8887 27.8121 30.6986C27.7243 30.5084 27.641 30.3443 27.5622 30.2061C27.8203 29.8839 28.0693 29.4881 28.3092 29.0186C28.5577 28.5405 28.7845 28.0495 28.9895 27.5456C29.1945 27.033 29.352 26.5598 29.4622 26.1258ZM31.1696 26.8697C31.2393 26.9387 31.3396 27.0464 31.4705 27.193C31.61 27.3395 31.7627 27.5076 31.9285 27.6973C32.0942 27.8783 32.2513 28.0637 32.3997 28.2535C32.5568 28.4346 32.6965 28.5984 32.8187 28.745C32.9495 28.8916 33.0412 29.0037 33.0936 29.0814L32.1519 30.309C32.0641 30.1188 31.9501 29.8985 31.81 29.648C31.6698 29.3888 31.5165 29.1254 31.3503 28.8577C31.184 28.5813 31.0221 28.3223 30.8647 28.0805C30.7073 27.8388 30.5718 27.6403 30.4582 27.4849L31.1696 26.8697ZM27.7353 22.0929L28.8256 21.8005C28.9401 22.1118 29.0418 22.4492 29.1306 22.8127C29.2281 23.1761 29.3082 23.531 29.3709 23.8773C29.4336 24.2236 29.4788 24.5353 29.5064 24.8125L28.3383 25.1314C28.328 24.8541 28.2915 24.5423 28.2288 24.196C28.1747 23.841 28.1032 23.4817 28.0144 23.1183C27.9342 22.7461 27.8412 22.4043 27.7353 22.0929ZM32.0102 21.7167L33.3249 21.9949C33.223 22.3509 33.1124 22.7155 32.9933 23.0889C32.8742 23.4623 32.755 23.8227 32.6357 24.17C32.5163 24.5087 32.4054 24.8084 32.303 25.069L31.3133 24.7888C31.407 24.511 31.4961 24.1941 31.5807 23.8383C31.6739 23.4737 31.7584 23.1049 31.8342 22.7317C31.91 22.3586 31.9687 22.0203 32.0102 21.7167ZM36.9329 20.9727L38.3889 20.9641L38.4608 33.1709L37.0049 33.1794L36.9329 20.9727ZM33.0939 29.1334L39.7688 27.8981L40.0113 29.3396L33.3365 30.588L33.0939 29.1334ZM33.7844 22.7592L34.5452 21.7017C34.7886 21.839 35.0409 21.9978 35.302 22.1783C35.5717 22.3587 35.8241 22.5435 36.0593 22.7328C36.3031 22.9221 36.4948 23.0986 36.6344 23.2625L35.8353 24.4372C35.7043 24.2646 35.5212 24.0794 35.286 23.8814C35.0595 23.6834 34.8157 23.4855 34.5545 23.2877C34.2933 23.0899 34.0366 22.9138 33.7844 22.7592ZM33.2187 26.0386L33.9401 24.9164C34.2009 25.0448 34.4704 25.1992 34.7488 25.3796C35.0272 25.5513 35.2926 25.7274 35.545 25.9079C35.7973 26.0798 36.002 26.2476 36.159 26.4113L35.3733 27.664C35.2337 27.5001 35.042 27.3236 34.7982 27.1343C34.5544 26.9364 34.2932 26.743 34.0148 26.554C33.7449 26.3562 33.4796 26.1844 33.2187 26.0386Z" fill="#2BB8D9"/>
</svg>
