<svg width="79" height="12" viewBox="0 0 79 12" fill="none" xmlns="http://www.w3.org/2000/svg">
<path d="M8.33 3.23C8.25 3.34 8.07 3.64 7.98 3.85C7.57 4.8 6.83 6.16 5.97 7.16C4.85 8.45 3.34 9.69 1.79 10.42L0.75 9.34C2.37 8.74 3.91 7.52 4.85 6.48C5.51 5.73 6.12 4.74 6.35 4.03C5.93 4.03 3.38 4.03 2.95 4.03C2.54 4.03 1.99 4.08 1.77 4.1V2.67C2.04 2.71 2.66 2.74 2.95 2.74C3.48 2.74 6.04 2.74 6.48 2.74C6.92 2.74 7.31 2.69 7.52 2.62L8.33 3.23ZM6.1 6.33C7.13 7.17 8.55 8.66 9.2 9.46L8.06 10.45C7.32 9.42 6.23 8.23 5.16 7.26L6.1 6.33ZM19.49 3.79C19.38 3.98 19.24 4.25 19.16 4.5C18.89 5.4 18.32 6.73 17.41 7.84C16.46 9 15.26 9.92 13.38 10.66L12.2 9.61C14.24 8.99 15.35 8.12 16.23 7.13C16.91 6.35 17.49 5.15 17.65 4.41H14.28L14.74 3.27C15.18 3.27 17.28 3.27 17.59 3.27C17.9 3.27 18.24 3.23 18.46 3.15L19.49 3.79ZM16.23 2.2C15.99 2.55 15.73 3.01 15.62 3.22C14.94 4.43 13.75 5.84 12.31 6.82L11.19 5.99C12.94 4.92 13.82 3.63 14.31 2.77C14.46 2.53 14.67 2.07 14.76 1.72L16.23 2.2ZM22.26 2.91C22.66 2.92 23.04 2.93 23.31 2.93C24.04 2.93 28.1 2.93 28.82 2.93C29.07 2.93 29.44 2.93 29.81 2.92C29.79 3.22 29.79 3.58 29.79 3.89C29.79 4.5 29.79 8.18 29.79 8.79C29.79 9.18 29.8 10.14 29.81 10.18H28.42C28.42 10.14 28.45 9.36 28.45 8.81C28.45 8.23 28.45 4.21 28.45 4.21H23.61C23.61 4.21 23.61 8.22 23.61 8.81C23.61 9.29 23.62 10.13 23.62 10.18H22.25C22.25 10.13 22.27 9.25 22.27 8.77C22.27 8.17 22.27 4.47 22.27 3.89C22.27 3.6 22.27 3.2 22.26 2.91ZM28.94 8.36V9.63H22.93V8.36H28.94ZM32.41 5.37C32.78 5.4 33.5 5.44 34.02 5.44C35.2 5.44 38.5 5.44 39.39 5.44C39.86 5.44 40.3 5.39 40.57 5.37V6.95C40.33 6.94 39.82 6.89 39.4 6.89C38.49 6.89 35.2 6.89 34.02 6.89C33.46 6.89 32.79 6.92 32.41 6.95V5.37ZM47.02 9.78C47.07 9.59 47.1 9.32 47.1 9.05C47.1 8.52 47.1 4.03 47.1 3.22C47.1 2.77 47.03 2.38 47.03 2.36H48.51C48.51 2.38 48.44 2.78 48.44 3.23C48.44 4.03 48.44 7.84 48.44 8.45C49.26 8.1 50.24 7.31 50.92 6.34L51.68 7.45C50.85 8.53 49.42 9.61 48.29 10.18C48.08 10.29 47.96 10.4 47.86 10.47L47.02 9.78ZM42.39 9.64C43.28 9.02 43.82 8.1 44.09 7.24C44.38 6.39 44.39 4.49 44.39 3.29C44.39 2.88 44.35 2.62 44.29 2.37H45.76C45.76 2.41 45.69 2.86 45.69 3.27C45.69 4.46 45.66 6.57 45.4 7.58C45.09 8.7 44.47 9.69 43.61 10.45L42.39 9.64Z" fill="#017972"/>
<path d="M56 9.5H77.5L75.5 8" stroke="#017972"/>
</svg>
