<svg width="79" height="12" viewBox="0 0 79 12" fill="none" xmlns="http://www.w3.org/2000/svg">
<path d="M8.34 3.22C8.3 3.28 8.24 3.37333 8.16 3.5C8.08667 3.62667 8.03 3.74333 7.99 3.85C7.85 4.16333 7.67667 4.51333 7.47 4.9C7.27 5.28667 7.04 5.67667 6.78 6.07C6.52667 6.45667 6.25667 6.82 5.97 7.16C5.59667 7.58 5.18333 7.99667 4.73 8.41C4.28333 8.81667 3.81 9.19333 3.31 9.54C2.81667 9.88 2.31 10.1733 1.79 10.42L0.76 9.34C1.3 9.13333 1.82333 8.87333 2.33 8.56C2.83667 8.24667 3.30667 7.90667 3.74 7.54C4.17333 7.17333 4.54667 6.81667 4.86 6.47C5.08 6.21667 5.28667 5.94667 5.48 5.66C5.68 5.37333 5.85667 5.09 6.01 4.81C6.16333 4.52333 6.27667 4.26 6.35 4.02C6.28333 4.02 6.16333 4.02 5.99 4.02C5.81667 4.02 5.61333 4.02 5.38 4.02C5.15333 4.02 4.91333 4.02 4.66 4.02C4.40667 4.02 4.16333 4.02 3.93 4.02C3.70333 4.02 3.50333 4.02 3.33 4.02C3.15667 4.02 3.03333 4.02 2.96 4.02C2.82 4.02 2.67333 4.02667 2.52 4.04C2.36667 4.04667 2.22 4.05667 2.08 4.07C1.94667 4.07667 1.84333 4.08333 1.77 4.09V2.67C1.87 2.67667 1.99333 2.68667 2.14 2.7C2.28667 2.71333 2.43333 2.72333 2.58 2.73C2.73333 2.73667 2.86 2.74 2.96 2.74C3.04667 2.74 3.18333 2.74 3.37 2.74C3.55667 2.74 3.77 2.74 4.01 2.74C4.25 2.74 4.49667 2.74 4.75 2.74C5.01 2.74 5.25667 2.74 5.49 2.74C5.73 2.74 5.93667 2.74 6.11 2.74C6.28333 2.74 6.41 2.74 6.49 2.74C6.71 2.74 6.91 2.72667 7.09 2.7C7.27667 2.67333 7.42 2.64333 7.52 2.61L8.34 3.22ZM6.1 6.33C6.36 6.53667 6.63667 6.77667 6.93 7.05C7.22333 7.32333 7.51333 7.60667 7.8 7.9C8.08667 8.19333 8.35 8.47667 8.59 8.75C8.83667 9.01667 9.04333 9.25 9.21 9.45L8.07 10.44C7.82333 10.1 7.54 9.74667 7.22 9.38C6.90667 9.01333 6.57333 8.65 6.22 8.29C5.87333 7.92333 5.52 7.57667 5.16 7.25L6.1 6.33ZM19.49 3.78C19.4367 3.87333 19.38 3.98667 19.32 4.12C19.26 4.24667 19.2067 4.37333 19.16 4.5C19.0733 4.79333 18.95 5.13 18.79 5.51C18.6367 5.88333 18.4433 6.27333 18.21 6.68C17.9833 7.08 17.72 7.46667 17.42 7.84C16.94 8.41333 16.38 8.93333 15.74 9.4C15.1067 9.86667 14.32 10.2867 13.38 10.66L12.2 9.6C12.88 9.4 13.4667 9.17 13.96 8.91C14.4533 8.65 14.8833 8.37333 15.25 8.08C15.6167 7.78 15.9433 7.46333 16.23 7.13C16.4633 6.87 16.6767 6.57667 16.87 6.25C17.0633 5.91667 17.23 5.58667 17.37 5.26C17.51 4.93333 17.6033 4.64667 17.65 4.4H14.28L14.74 3.27C14.8333 3.27 14.9767 3.27 15.17 3.27C15.37 3.27 15.5933 3.27 15.84 3.27C16.0933 3.27 16.34 3.27 16.58 3.27C16.8267 3.27 17.04 3.27 17.22 3.27C17.4067 3.27 17.5333 3.27 17.6 3.27C17.7533 3.27 17.9067 3.26 18.06 3.24C18.22 3.22 18.3567 3.19 18.47 3.15L19.49 3.78ZM16.23 2.2C16.11 2.37333 15.9933 2.56 15.88 2.76C15.7667 2.96 15.68 3.11333 15.62 3.22C15.3933 3.62 15.1133 4.03667 14.78 4.47C14.4533 4.89667 14.08 5.31333 13.66 5.72C13.24 6.12 12.7933 6.48667 12.32 6.82L11.19 5.99C11.63 5.71667 12.0167 5.43667 12.35 5.15C12.69 4.86333 12.9833 4.58 13.23 4.3C13.4767 4.01333 13.6867 3.74 13.86 3.48C14.04 3.21333 14.1933 2.97667 14.32 2.77C14.4 2.64333 14.4833 2.48 14.57 2.28C14.6567 2.07333 14.7233 1.88667 14.77 1.72L16.23 2.2ZM22.26 2.91C22.4667 2.91667 22.66 2.92333 22.84 2.93C23.0267 2.93 23.1867 2.93 23.32 2.93C23.4267 2.93 23.59 2.93 23.81 2.93C24.0367 2.93 24.3 2.93 24.6 2.93C24.9 2.93 25.22 2.93 25.56 2.93C25.9 2.93 26.24 2.93 26.58 2.93C26.9267 2.93 27.25 2.93 27.55 2.93C27.85 2.93 28.11 2.93 28.33 2.93C28.5567 2.93 28.72 2.93 28.82 2.93C28.9467 2.93 29.0967 2.93 29.27 2.93C29.45 2.92333 29.63 2.91667 29.81 2.91C29.8033 3.06333 29.7967 3.22667 29.79 3.4C29.79 3.56667 29.79 3.72667 29.79 3.88C29.79 3.97333 29.79 4.12 29.79 4.32C29.79 4.51333 29.79 4.74667 29.79 5.02C29.79 5.28667 29.79 5.57333 29.79 5.88C29.79 6.18 29.79 6.48333 29.79 6.79C29.79 7.09667 29.79 7.38667 29.79 7.66C29.79 7.92667 29.79 8.16 29.79 8.36C29.79 8.55333 29.79 8.69333 29.79 8.78C29.79 8.88 29.79 9.00667 29.79 9.16C29.7967 9.30667 29.8 9.45667 29.8 9.61C29.8 9.75667 29.8 9.88667 29.8 10C29.8067 10.1067 29.81 10.1633 29.81 10.17H28.43C28.43 10.1567 28.43 10.0767 28.43 9.93C28.4367 9.77667 28.44 9.59667 28.44 9.39C28.4467 9.18333 28.45 8.99 28.45 8.81C28.45 8.72333 28.45 8.57667 28.45 8.37C28.45 8.16333 28.45 7.92 28.45 7.64C28.45 7.36 28.45 7.06333 28.45 6.75C28.45 6.43667 28.45 6.13 28.45 5.83C28.45 5.53 28.45 5.25667 28.45 5.01C28.45 4.76333 28.45 4.56667 28.45 4.42C28.45 4.27333 28.45 4.2 28.45 4.2H23.62C23.62 4.2 23.62 4.27333 23.62 4.42C23.62 4.56667 23.62 4.76333 23.62 5.01C23.62 5.25 23.62 5.52333 23.62 5.83C23.62 6.13 23.62 6.43667 23.62 6.75C23.62 7.05667 23.62 7.35333 23.62 7.64C23.62 7.92 23.62 8.16333 23.62 8.37C23.62 8.57667 23.62 8.72333 23.62 8.81C23.62 8.93 23.62 9.06667 23.62 9.22C23.62 9.36667 23.62 9.51 23.62 9.65C23.6267 9.79 23.63 9.90667 23.63 10C23.63 10.1 23.63 10.1567 23.63 10.17H22.25C22.25 10.1567 22.25 10.1 22.25 10C22.2567 9.9 22.26 9.77667 22.26 9.63C22.2667 9.48333 22.27 9.33333 22.27 9.18C22.2767 9.02667 22.28 8.89 22.28 8.77C22.28 8.68333 22.28 8.54333 22.28 8.35C22.28 8.15 22.28 7.91333 22.28 7.64C22.28 7.36667 22.28 7.08 22.28 6.78C22.28 6.47333 22.28 6.16667 22.28 5.86C22.28 5.55333 22.28 5.26667 22.28 5C22.28 4.72667 22.28 4.49333 22.28 4.3C22.28 4.10667 22.28 3.96667 22.28 3.88C22.28 3.74 22.28 3.58 22.28 3.4C22.28 3.21333 22.2733 3.05 22.26 2.91ZM28.95 8.35V9.63H22.94V8.35H28.95ZM32.42 5.37C32.54 5.37667 32.6933 5.38667 32.88 5.4C33.0667 5.40667 33.26 5.41333 33.46 5.42C33.6667 5.42667 33.8567 5.43 34.03 5.43C34.1967 5.43 34.4033 5.43 34.65 5.43C34.8967 5.43 35.1633 5.43 35.45 5.43C35.7433 5.43 36.0433 5.43 36.35 5.43C36.6633 5.43 36.9733 5.43 37.28 5.43C37.5867 5.43 37.8767 5.43 38.15 5.43C38.4233 5.43 38.6667 5.43 38.88 5.43C39.1 5.43 39.2733 5.43 39.4 5.43C39.6333 5.43 39.8533 5.42333 40.06 5.41C40.2667 5.39 40.4367 5.37667 40.57 5.37V6.94C40.4567 6.93333 40.2867 6.92333 40.06 6.91C39.8333 6.89667 39.6133 6.89 39.4 6.89C39.2733 6.89 39.1 6.89 38.88 6.89C38.66 6.89 38.4133 6.89 38.14 6.89C37.8667 6.89 37.5767 6.89 37.27 6.89C36.97 6.89 36.6633 6.89 36.35 6.89C36.0367 6.89 35.7333 6.89 35.44 6.89C35.1533 6.89 34.8867 6.89 34.64 6.89C34.4 6.89 34.1967 6.89 34.03 6.89C33.7433 6.89 33.45 6.89667 33.15 6.91C32.85 6.91667 32.6067 6.92667 32.42 6.94V5.37ZM47.03 9.78C47.05 9.68 47.0667 9.56667 47.08 9.44C47.1 9.30667 47.11 9.17333 47.11 9.04C47.11 8.96667 47.11 8.82 47.11 8.6C47.11 8.38 47.11 8.11333 47.11 7.8C47.11 7.48667 47.11 7.15 47.11 6.79C47.11 6.42333 47.11 6.05333 47.11 5.68C47.11 5.30667 47.11 4.95667 47.11 4.63C47.11 4.29667 47.11 4.00667 47.11 3.76C47.11 3.50667 47.11 3.32333 47.11 3.21C47.11 2.98333 47.0967 2.78667 47.07 2.62C47.05 2.45333 47.0367 2.36333 47.03 2.35H48.52C48.5133 2.36333 48.5 2.45667 48.48 2.63C48.46 2.79667 48.45 2.99333 48.45 3.22C48.45 3.33333 48.45 3.50333 48.45 3.73C48.45 3.95 48.45 4.20667 48.45 4.5C48.45 4.78667 48.45 5.09333 48.45 5.42C48.45 5.74667 48.45 6.07 48.45 6.39C48.45 6.70333 48.45 7.00333 48.45 7.29C48.45 7.57 48.45 7.81 48.45 8.01C48.45 8.21 48.45 8.35667 48.45 8.45C48.7233 8.33 49.0067 8.16667 49.3 7.96C49.5933 7.75333 49.88 7.51333 50.16 7.24C50.4467 6.96 50.7 6.66 50.92 6.34L51.69 7.44C51.4167 7.8 51.0833 8.15333 50.69 8.5C50.3033 8.84667 49.9033 9.16333 49.49 9.45C49.0767 9.73667 48.68 9.97667 48.3 10.17C48.1933 10.23 48.1067 10.2833 48.04 10.33C47.9733 10.3833 47.9167 10.43 47.87 10.47L47.03 9.78ZM42.4 9.63C42.84 9.32333 43.2 8.95333 43.48 8.52C43.76 8.08667 43.9667 7.66 44.1 7.24C44.1733 7.02 44.2267 6.75 44.26 6.43C44.3 6.10333 44.33 5.75667 44.35 5.39C44.37 5.01667 44.38 4.65 44.38 4.29C44.3867 3.92333 44.39 3.58667 44.39 3.28C44.39 3.08 44.38 2.91 44.36 2.77C44.3467 2.62333 44.3267 2.48667 44.3 2.36H45.77C45.7633 2.37333 45.7533 2.43 45.74 2.53C45.7333 2.62333 45.7233 2.73667 45.71 2.87C45.7033 2.99667 45.7 3.13 45.7 3.27C45.7 3.56333 45.6967 3.90667 45.69 4.3C45.6833 4.68667 45.67 5.08333 45.65 5.49C45.63 5.89667 45.6 6.28333 45.56 6.65C45.52 7.01 45.4667 7.31667 45.4 7.57C45.2467 8.13667 45.0167 8.66333 44.71 9.15C44.41 9.63 44.0467 10.06 43.62 10.44L42.4 9.63Z" fill="#2BB8D9"/>
<path d="M56 10.5H77.5L75.5 9" stroke="#2BB8D9"/>
</svg>
